Eorzea.ufo
<glyph name="comma" format="2">
	<advance width="168"/>
	<unicode hex="002C"/>
	<outline>
		<contour>
			<point x="59" y="31" type="line"/>
			<point x="112" y="31" type="line"/>
			<point x="112" y="81" type="line"/>
			<point x="59" y="81" type="line"/>
		</contour>
		<contour>
			<point x="84" y="108" type="curve"/>
			<point x="54" y="108"/>
			<point x="30" y="84"/>
			<point x="30" y="55" type="curve" smooth="yes"/>
			<point x="30" y="25"/>
			<point x="54" y="1"/>
			<point x="84" y="1" type="curve" smooth="yes"/>
			<point x="114" y="1"/>
			<point x="138" y="25"/>
			<point x="138" y="55" type="curve" smooth="yes"/>
			<point x="138" y="84"/>
			<point x="114" y="108"/>
		</contour>
		<contour>
			<point x="83" y="74" type="curve"/>
			<point x="73" y="74"/>
			<point x="65" y="66"/>
			<point x="65" y="55" type="curve" smooth="yes"/>
			<point x="65" y="45"/>
			<point x="73" y="36"/>
			<point x="83" y="36" type="curve" smooth="yes"/>
			<point x="94" y="36"/>
			<point x="102" y="45"/>
			<point x="102" y="55" type="curve" smooth="yes"/>
			<point x="102" y="66"/>
			<point x="94" y="74"/>
		</contour>
	</outline>
</glyph>
<glyph name="hyphen" format="2">
  <advance width="432"/>
  <unicode hex="002D"/>
  <outline>
    <contour>
      <point x="30.0" y="243.0" type="line"/>
      <point x="402.0" y="243.0" type="line"/>
      <point x="402.0" y="298.0" type="line"/>
      <point x="30.0" y="298.0" type="line"/>
    </contour>
  </outline>
</glyph>
<glyph name="period" format="2">
	<advance width="168"/>
	<unicode hex="002E"/>
	<outline>
		<contour>
			<point x="30" y="55" type="curve" smooth="yes"/>
			<point x="30" y="25"/>
			<point x="54" y="1"/>
			<point x="84" y="1" type="curve" smooth="yes"/>
			<point x="114" y="1"/>
			<point x="138" y="25"/>
			<point x="138" y="55" type="curve" smooth="yes"/>
			<point x="138" y="84"/>
			<point x="114" y="108"/>
			<point x="84" y="108" type="curve" smooth="yes"/>
			<point x="54" y="108"/>
			<point x="30" y="84"/>
		</contour>
		<contour>
			<point x="65" y="55" type="curve" smooth="yes"/>
			<point x="65" y="66"/>
			<point x="73" y="74"/>
			<point x="83" y="74" type="curve" smooth="yes"/>
			<point x="94" y="74"/>
			<point x="102" y="66"/>
			<point x="102" y="55" type="curve" smooth="yes"/>
			<point x="102" y="45"/>
			<point x="94" y="36"/>
			<point x="83" y="36" type="curve" smooth="yes"/>
			<point x="73" y="36"/>
			<point x="65" y="45"/>
		</contour>
	</outline>
</glyph>
<glyph name="zero" format="2">
  <advance width="525"/>
  <unicode hex="0030"/>
  <outline>
    <contour>
      <point x="30.0" y="264.0" type="curve" smooth="yes"/>
      <point x="30.0" y="72.0"/>
      <point x="148.0" y="1.0"/>
      <point x="244.0" y="1.0" type="curve" smooth="yes"/>
      <point x="322.0" y="1.0"/>
      <point x="495.0" y="77.0"/>
      <point x="495.0" y="300.0" type="curve" smooth="yes"/>
      <point x="495.0" y="445.0"/>
      <point x="390.0" y="574.0"/>
      <point x="292.0" y="574.0" type="curve" smooth="yes"/>
      <point x="144.0" y="574.0"/>
      <point x="30.0" y="360.0"/>
    </contour>
    <contour>
      <point x="95.0" y="275.0" type="curve" smooth="yes"/>
      <point x="95.0" y="408.0"/>
      <point x="116.0" y="487.0"/>
      <point x="216.0" y="487.0" type="curve" smooth="yes"/>
      <point x="321.0" y="487.0"/>
      <point x="427.0" y="378.0"/>
      <point x="425.0" y="228.0" type="curve" smooth="yes"/>
      <point x="423.0825500488281" y="61.1812629699707"/>
      <point x="349.4706115722656" y="64.40714263916016"/>
      <point x="296.6927795410156" y="66.72001647949219" type="curve" smooth="yes"/>
      <point x="294.4207763671875" y="66.819580078125"/>
      <point x="292.1874084472656" y="66.9174575805664"/>
      <point x="290.0" y="67.0" type="curve" smooth="yes"/>
      <point x="239.0" y="69.0"/>
      <point x="195.0" y="90.0"/>
      <point x="162.0" y="122.0" type="curve"/>
      <point x="193.0" y="147.0"/>
      <point x="275.0" y="213.0"/>
      <point x="295.0" y="237.0" type="curve" smooth="yes"/>
      <point x="308.0" y="252.0"/>
      <point x="312.0" y="285.0"/>
      <point x="303.0" y="294.0" type="curve" smooth="yes"/>
      <point x="293.0" y="304.0"/>
      <point x="246.0" y="300.0"/>
      <point x="237.0" y="288.0" type="curve" smooth="yes"/>
      <point x="228.0" y="276.0"/>
      <point x="229.0" y="243.0"/>
      <point x="221.0" y="231.0" type="curve" smooth="yes"/>
      <point x="208.0" y="212.0"/>
      <point x="167.0" y="165.0"/>
      <point x="145.0" y="140.0" type="curve"/>
      <point x="113.0" y="179.0"/>
      <point x="95.0" y="228.0"/>
    </contour>
  </outline>
</glyph>
<glyph name="one" format="2">
	<advance width="540"/>
	<unicode hex="0031"/>
	<outline>
		<contour>
			<point x="295" y="555" type="curve" smooth="yes"/>
			<point x="190" y="554"/>
			<point x="120" y="469"/>
			<point x="118" y="393" type="curve" smooth="yes"/>
			<point x="117" y="309"/>
			<point x="119" y="156"/>
			<point x="120" y="83" type="curve" smooth="yes"/>
			<point x="120" y="47"/>
			<point x="30" y="1"/>
			<point x="30" y="1" type="curve"/>
			<point x="30" y="1"/>
			<point x="210" y="29"/>
			<point x="211" y="130" type="curve" smooth="yes"/>
			<point x="211" y="158.51379"/>
			<point x="210.71848" y="197.86621"/>
			<point x="210.41949" y="239.66029" type="curve" smooth="yes"/>
			<point x="209.92155" y="309.26315"/>
			<point x="209.37518" y="385.63788"/>
			<point x="210" y="430" type="curve" smooth="yes"/>
			<point x="212" y="489"/>
			<point x="253" y="527"/>
			<point x="291" y="527" type="curve" smooth="yes"/>
			<point x="353.40378" y="527"/>
			<point x="383.74057" y="479.28125"/>
			<point x="406.77646" y="443.04657" type="curve" smooth="yes"/>
			<point x="421.02396" y="420.63571"/>
			<point x="432.47864" y="402.61786"/>
			<point x="447" y="403" type="curve" smooth="yes"/>
			<point x="481" y="403"/>
			<point x="523" y="442"/>
			<point x="506" y="464" type="curve" smooth="yes"/>
			<point x="484" y="493"/>
			<point x="392" y="556"/>
		</contour>
	</outline>
</glyph>
<glyph name="two" format="2">
  <advance width="496"/>
  <unicode hex="0032"/>
  <outline>
    <contour>
      <point x="251.0" y="597.0" type="curve" smooth="yes"/>
      <point x="146.0" y="595.0"/>
      <point x="77.0" y="511.0"/>
      <point x="75.0" y="434.0" type="curve" smooth="yes"/>
      <point x="73.0" y="350.0"/>
      <point x="75.0" y="198.0"/>
      <point x="76.0" y="124.0" type="curve" smooth="yes"/>
      <point x="76.0" y="89.0"/>
      <point x="30.0" y="1.0"/>
      <point x="30.0" y="1.0" type="curve"/>
      <point x="30.0" y="1.0"/>
      <point x="167.0" y="71.0"/>
      <point x="167.0" y="172.0" type="curve" smooth="yes"/>
      <point x="167.0" y="195.13943481445312"/>
      <point x="166.81460571289062" y="225.3240509033203"/>
      <point x="166.61314392089844" y="258.1227111816406" type="curve" smooth="yes"/>
      <point x="166.15293884277344" y="333.049072265625"/>
      <point x="165.6089324951172" y="421.6170959472656"/>
      <point x="167.0" y="471.0" type="curve" smooth="yes"/>
      <point x="168.0" y="531.0"/>
      <point x="209.0" y="568.0"/>
      <point x="248.0" y="568.0" type="curve" smooth="yes"/>
      <point x="348.0" y="568.0"/>
      <point x="365.0" y="444.0"/>
      <point x="403.0" y="444.0" type="curve" smooth="yes"/>
      <point x="437.0" y="445.0"/>
      <point x="479.0" y="483.0"/>
      <point x="462.0" y="506.0" type="curve" smooth="yes"/>
      <point x="440.0" y="534.0"/>
      <point x="348.0" y="598.0"/>
    </contour>
    <contour>
      <point x="283.0" y="384.0" type="curve" smooth="yes"/>
      <point x="266.0" y="372.0"/>
      <point x="259.0" y="344.0"/>
      <point x="231.0" y="320.0" type="curve" smooth="yes"/>
      <point x="200.0" y="293.0"/>
      <point x="140.0" y="262.0"/>
      <point x="140.0" y="262.0" type="curve"/>
      <point x="140.0" y="262.0"/>
      <point x="212.0" y="248.0"/>
      <point x="269.0" y="295.0" type="curve" smooth="yes"/>
      <point x="301.0" y="323.0"/>
      <point x="341.0" y="362.0"/>
      <point x="339.0" y="383.0" type="curve" smooth="yes"/>
      <point x="337.0" y="398.0"/>
      <point x="299.0" y="395.0"/>
    </contour>
  </outline>
</glyph>
<glyph name="three" format="2">
  <advance width="577"/>
  <unicode hex="0033"/>
  <outline>
    <contour>
      <point x="333.0" y="617.0" type="curve" smooth="yes"/>
      <point x="228.0" y="616.0"/>
      <point x="158.0" y="531.0"/>
      <point x="156.0" y="455.0" type="curve" smooth="yes"/>
      <point x="154.0" y="371.0"/>
      <point x="156.0" y="218.0"/>
      <point x="157.0" y="145.0" type="curve" smooth="yes"/>
      <point x="158.0" y="109.0"/>
      <point x="30.0" y="1.0"/>
      <point x="30.0" y="1.0" type="curve"/>
      <point x="30.0" y="1.0"/>
      <point x="248.0" y="45.0"/>
      <point x="248.0" y="192.0" type="curve" smooth="yes"/>
      <point x="248.50209045410156" y="230.15834045410156"/>
      <point x="248.24790954589844" y="287.7274475097656"/>
      <point x="247.9968719482422" y="344.5827941894531" type="curve" smooth="yes"/>
      <point x="247.7479248046875" y="400.9663391113281"/>
      <point x="247.50209045410156" y="456.6479187011719"/>
      <point x="248.0" y="492.0" type="curve" smooth="yes"/>
      <point x="250.0" y="551.0"/>
      <point x="291.0" y="589.0"/>
      <point x="329.0" y="589.0" type="curve" smooth="yes"/>
      <point x="390.36474609375" y="589.0"/>
      <point x="420.4747314453125" y="541.9296264648438"/>
      <point x="443.59307861328125" y="505.7891540527344" type="curve" smooth="yes"/>
      <point x="458.1484069824219" y="483.03509521484375"/>
      <point x="469.9322509765625" y="464.6136474609375"/>
      <point x="485.0" y="465.0" type="curve" smooth="yes"/>
      <point x="518.0" y="465.0"/>
      <point x="561.0" y="504.0"/>
      <point x="543.0" y="526.0" type="curve" smooth="yes"/>
      <point x="521.0" y="555.0"/>
      <point x="430.0" y="618.0"/>
    </contour>
    <contour>
      <point x="365.0" y="405.0" type="curve" smooth="yes"/>
      <point x="347.0" y="393.0"/>
      <point x="340.0" y="365.0"/>
      <point x="312.0" y="340.0" type="curve" smooth="yes"/>
      <point x="281.0" y="313.0"/>
      <point x="221.0" y="283.0"/>
      <point x="221.0" y="283.0" type="curve"/>
      <point x="221.0" y="283.0"/>
      <point x="294.0" y="269.0"/>
      <point x="350.0" y="316.0" type="curve" smooth="yes"/>
      <point x="383.0" y="343.0"/>
      <point x="422.0" y="383.0"/>
      <point x="420.0" y="403.0" type="curve" smooth="yes"/>
      <point x="418.0" y="419.0"/>
      <point x="380.0" y="416.0"/>
    </contour>
    <contour>
      <point x="368.0" y="247.0" type="curve"/>
      <point x="351.0" y="234.0"/>
      <point x="344.0" y="206.0"/>
      <point x="316.0" y="182.0" type="curve" smooth="yes"/>
      <point x="285.0" y="155.0"/>
      <point x="212.0" y="122.0"/>
      <point x="212.0" y="122.0" type="curve"/>
      <point x="212.0" y="122.0"/>
      <point x="298.0" y="110.0"/>
      <point x="354.0" y="158.0" type="curve" smooth="yes"/>
      <point x="387.0" y="185.0"/>
      <point x="426.0" y="224.0"/>
      <point x="424.0" y="245.0" type="curve" smooth="yes"/>
      <point x="422.0" y="260.0"/>
      <point x="384.0" y="257.0"/>
    </contour>
  </outline>
</glyph>
<glyph name="four" format="2">
  <advance width="574"/>
  <unicode hex="0034"/>
  <outline>
    <contour>
      <point x="209.0" y="577.0" type="curve" smooth="yes"/>
      <point x="158.0" y="578.0"/>
      <point x="30.0" y="441.0"/>
      <point x="30.0" y="381.0" type="curve" smooth="yes"/>
      <point x="30.0" y="327.0"/>
      <point x="54.0" y="280.0"/>
      <point x="70.0" y="280.0" type="curve" smooth="yes"/>
      <point x="86.0" y="280.0"/>
      <point x="123.0" y="321.0"/>
      <point x="124.0" y="347.0" type="curve" smooth="yes"/>
      <point x="124.4957046508789" y="359.88824462890625"/>
      <point x="118.35697174072266" y="375.72509765625"/>
      <point x="112.16120147705078" y="391.7091064453125" type="curve" smooth="yes"/>
      <point x="105.85797119140625" y="407.9703674316406"/>
      <point x="99.4957046508789" y="424.3839416503906"/>
      <point x="100.0" y="438.0" type="curve" smooth="yes"/>
      <point x="101.0" y="467.0"/>
      <point x="136.0" y="510.0"/>
      <point x="161.0" y="509.0" type="curve" smooth="yes"/>
      <point x="183.0" y="508.0"/>
      <point x="219.0" y="485.0"/>
      <point x="233.0" y="462.0" type="curve" smooth="yes"/>
      <point x="277.0" y="390.0"/>
      <point x="416.0" y="163.0"/>
      <point x="454.0" y="96.0" type="curve" smooth="yes"/>
      <point x="460.0" y="85.0"/>
      <point x="458.0" y="55.0"/>
      <point x="458.0" y="55.0" type="curve"/>
      <point x="110.0" y="55.0" type="line"/>
      <point x="68.00581359863281" y="2.0073344707489014" type="line"/>
      <point x="68.0019760131836" y="2.0049140453338623"/>
      <point x="68.00003051757812" y="2.002469062805176"/>
      <point x="68.0" y="2.0" type="curve"/>
      <point x="68.00581359863281" y="2.0073344707489014" type="line"/>
      <point x="69.5571517944336" y="2.9850857257843018"/>
      <point x="381.1842346191406" y="0.002489829435944557"/>
      <point x="455.0" y="1.0" type="curve" smooth="yes"/>
      <point x="485.0" y="1.0"/>
      <point x="533.0" y="37.0"/>
      <point x="543.0" y="69.0" type="curve" smooth="yes"/>
      <point x="555.1803588867188" y="107.97720336914062"/>
      <point x="411.7459716796875" y="328.944580078125"/>
      <point x="328.4778137207031" y="457.2230224609375" type="curve" smooth="yes"/>
      <point x="309.2021789550781" y="486.9180603027344"/>
      <point x="293.150634765625" y="511.64617919921875"/>
      <point x="283.0" y="528.0" type="curve" smooth="yes"/>
      <point x="267.0" y="553.0"/>
      <point x="240.0" y="577.0"/>
    </contour>
  </outline>
</glyph>
<glyph name="five" format="2">
	<advance width="530"/>
	<unicode hex="0035"/>
	<outline>
		<contour>
			<point x="248" y="567" type="curve"/>
			<point x="248" y="567" type="line"/>
			<point x="302" y="568"/>
			<point x="404" y="506"/>
			<point x="403" y="435" type="curve"/>
			<point x="403" y="344"/>
			<point x="403" y="151"/>
			<point x="403" y="77" type="curve"/>
			<point x="404" y="41"/>
			<point x="500" y="1"/>
			<point x="500" y="1" type="curve"/>
			<point x="500" y="1"/>
			<point x="311" y="19"/>
			<point x="312" y="89" type="curve"/>
			<point x="312" y="166"/>
			<point x="312" y="352"/>
			<point x="312" y="424" type="curve"/>
			<point x="312" y="469"/>
			<point x="241" y="501"/>
			<point x="200" y="503" type="curve"/>
			<point x="160" y="505"/>
			<point x="77" y="475"/>
			<point x="77" y="475" type="curve"/>
			<point x="77" y="475"/>
			<point x="194" y="566"/>
		</contour>
		<contour>
			<point x="31" y="56" type="curve"/>
			<point x="31" y="56" type="line"/>
			<point x="43" y="92"/>
			<point x="104" y="164"/>
			<point x="156" y="207" type="curve"/>
			<point x="207" y="250"/>
			<point x="349" y="323"/>
			<point x="349" y="323" type="curve"/>
			<point x="349" y="323"/>
			<point x="224" y="202"/>
			<point x="190" y="162" type="curve"/>
			<point x="170" y="139"/>
			<point x="142" y="103"/>
			<point x="141" y="84" type="curve"/>
			<point x="140" y="65"/>
			<point x="183" y="54"/>
			<point x="184" y="41" type="curve"/>
			<point x="185" y="25"/>
			<point x="126" y="15"/>
			<point x="101" y="15" type="curve"/>
			<point x="75" y="14"/>
			<point x="22" y="30"/>
		</contour>
	</outline>
</glyph>
<glyph name="six" format="2">
  <advance width="606"/>
  <unicode hex="0036"/>
  <outline>
    <contour>
      <point x="443.0" y="585.0" type="curve" smooth="yes"/>
      <point x="390.0" y="585.0"/>
      <point x="336.0" y="545.0"/>
      <point x="306.0" y="495.0" type="curve" smooth="yes"/>
      <point x="256.0" y="411.0"/>
      <point x="124.0" y="188.0"/>
      <point x="79.0" y="112.0" type="curve" smooth="yes"/>
      <point x="69.0" y="95.0"/>
      <point x="69.0" y="41.0"/>
      <point x="69.0" y="41.0" type="curve"/>
      <point x="30.0" y="1.0" type="line"/>
      <point x="494.0" y="1.0" type="line"/>
      <point x="532.0" y="58.0" type="line"/>
      <point x="106.0" y="57.0" type="line"/>
      <point x="106.0" y="58.0"/>
      <point x="107.0" y="98.0"/>
      <point x="115.0" y="112.0" type="curve" smooth="yes"/>
      <point x="149.0" y="177.0"/>
      <point x="274.0" y="383.0"/>
      <point x="317.0" y="455.0" type="curve" smooth="yes"/>
      <point x="334.0" y="485.0"/>
      <point x="364.0" y="517.0"/>
      <point x="399.0" y="517.0" type="curve" smooth="yes"/>
      <point x="495.3055114746094" y="517.75830078125"/>
      <point x="495.5800476074219" y="442.6119079589844"/>
      <point x="495.7559509277344" y="394.4700012207031" type="curve" smooth="yes"/>
      <point x="495.81201171875" y="379.126220703125"/>
      <point x="495.8580322265625" y="366.5256042480469"/>
      <point x="499.0" y="360.0" type="curve" smooth="yes"/>
      <point x="513.0" y="331.0"/>
      <point x="578.0" y="420.0"/>
      <point x="576.0" y="467.0" type="curve" smooth="yes"/>
      <point x="575.0" y="513.0"/>
      <point x="519.0" y="584.0"/>
    </contour>
  </outline>
</glyph>
<glyph name="seven" format="2">
  <advance width="626"/>
  <unicode hex="0037"/>
  <outline>
    <contour>
      <point x="154.0" y="626.0" type="curve" smooth="yes"/>
      <point x="114.0" y="626.0"/>
      <point x="30.0" y="571.0"/>
      <point x="30.0" y="571.0" type="curve"/>
      <point x="30.0" y="571.0"/>
      <point x="101.0" y="594.0"/>
      <point x="130.0" y="593.0" type="curve" smooth="yes"/>
      <point x="182.0" y="592.0"/>
      <point x="226.0" y="561.0"/>
      <point x="226.0" y="501.0" type="curve" smooth="yes"/>
      <point x="226.0" y="23.0" type="line"/>
      <point x="304.0" y="60.0" type="line"/>
      <point x="311.0" y="60.0"/>
      <point x="315.0" y="407.0"/>
      <point x="311.0" y="502.0" type="curve" smooth="yes"/>
      <point x="311.0" y="595.0"/>
      <point x="233.0" y="626.0"/>
    </contour>
    <contour>
      <point x="454.0" y="297.0" type="curve" smooth="yes"/>
      <point x="370.0" y="298.0"/>
      <point x="291.0" y="217.0"/>
      <point x="291.0" y="217.0" type="curve"/>
      <point x="303.0" y="180.0" type="line"/>
      <point x="303.0" y="180.0"/>
      <point x="378.0" y="243.0"/>
      <point x="413.0" y="242.0" type="curve" smooth="yes"/>
      <point x="464.0" y="242.0"/>
      <point x="506.0" y="178.0"/>
      <point x="504.0" y="128.0" type="curve" smooth="yes"/>
      <point x="502.1103820800781" y="51.470314025878906"/>
      <point x="475.22607421875" y="51.710052490234375"/>
      <point x="446.118896484375" y="51.969608306884766" type="curve" smooth="yes"/>
      <point x="444.4186706542969" y="51.984771728515625"/>
      <point x="442.71087646484375" y="52.0"/>
      <point x="441.0" y="52.0" type="curve" smooth="yes"/>
      <point x="405.0" y="52.0"/>
      <point x="290.0" y="162.0"/>
      <point x="290.0" y="162.0" type="curve"/>
      <point x="286.0" y="79.0" type="line"/>
      <point x="286.0" y="79.0"/>
      <point x="381.0" y="1.0"/>
      <point x="434.0" y="1.0" type="curve" smooth="yes"/>
      <point x="491.0" y="3.0"/>
      <point x="591.0" y="92.0"/>
      <point x="596.0" y="159.0" type="curve" smooth="yes"/>
      <point x="600.0" y="207.0"/>
      <point x="527.0" y="297.0"/>
    </contour>
  </outline>
</glyph>
<glyph name="eight" format="2">
  <advance width="639"/>
  <unicode hex="0038"/>
  <outline>
    <contour>
      <point x="150.0" y="467.0" type="curve" smooth="yes"/>
      <point x="112.0" y="467.0"/>
      <point x="30.0" y="409.0"/>
      <point x="30.0" y="409.0" type="curve"/>
      <point x="30.0" y="409.0"/>
      <point x="109.0" y="438.0"/>
      <point x="147.0" y="438.0" type="curve" smooth="yes"/>
      <point x="183.0" y="437.0"/>
      <point x="255.0" y="384.0"/>
      <point x="255.0" y="384.0" type="curve"/>
      <point x="255.0" y="384.0"/>
      <point x="270.0" y="406.0"/>
      <point x="258.0" y="420.0" type="curve" smooth="yes"/>
      <point x="240.0" y="443.0"/>
      <point x="176.0" y="466.0"/>
    </contour>
    <contour>
      <point x="167.0" y="626.0" type="curve" smooth="yes"/>
      <point x="127.0" y="626.0"/>
      <point x="43.0" y="571.0"/>
      <point x="43.0" y="571.0" type="curve"/>
      <point x="43.0" y="571.0"/>
      <point x="114.0" y="594.0"/>
      <point x="143.0" y="593.0" type="curve" smooth="yes"/>
      <point x="195.0" y="592.0"/>
      <point x="239.0" y="561.0"/>
      <point x="239.0" y="501.0" type="curve" smooth="yes"/>
      <point x="239.0" y="23.0" type="line"/>
      <point x="317.0" y="60.0" type="line"/>
      <point x="324.0" y="60.0"/>
      <point x="328.0" y="407.0"/>
      <point x="324.0" y="502.0" type="curve" smooth="yes"/>
      <point x="324.0" y="595.0"/>
      <point x="246.0" y="626.0"/>
    </contour>
    <contour>
      <point x="467.0" y="297.0" type="curve" smooth="yes"/>
      <point x="383.0" y="298.0"/>
      <point x="304.0" y="217.0"/>
      <point x="304.0" y="217.0" type="curve"/>
      <point x="316.0" y="180.0" type="line"/>
      <point x="316.0" y="180.0"/>
      <point x="391.0" y="243.0"/>
      <point x="426.0" y="242.0" type="curve" smooth="yes"/>
      <point x="477.0" y="242.0"/>
      <point x="519.0" y="178.0"/>
      <point x="517.0" y="128.0" type="curve" smooth="yes"/>
      <point x="515.1103515625" y="51.470314025878906"/>
      <point x="488.22607421875" y="51.710052490234375"/>
      <point x="459.118896484375" y="51.969608306884766" type="curve" smooth="yes"/>
      <point x="457.4186706542969" y="51.984771728515625"/>
      <point x="455.71087646484375" y="52.0"/>
      <point x="454.0" y="52.0" type="curve" smooth="yes"/>
      <point x="418.0" y="52.0"/>
      <point x="303.0" y="162.0"/>
      <point x="303.0" y="162.0" type="curve"/>
      <point x="299.0" y="79.0" type="line"/>
      <point x="299.0" y="79.0"/>
      <point x="394.0" y="1.0"/>
      <point x="447.0" y="1.0" type="curve" smooth="yes"/>
      <point x="504.0" y="3.0"/>
      <point x="604.0" y="92.0"/>
      <point x="609.0" y="159.0" type="curve" smooth="yes"/>
      <point x="613.0" y="207.0"/>
      <point x="540.0" y="297.0"/>
    </contour>
  </outline>
</glyph>
<glyph name="nine" format="2">
  <advance width="644"/>
  <unicode hex="0039"/>
  <outline>
    <contour>
      <point x="155.0" y="467.0" type="curve" smooth="yes"/>
      <point x="117.0" y="467.0"/>
      <point x="35.0" y="409.0"/>
      <point x="35.0" y="409.0" type="curve"/>
      <point x="35.0" y="409.0"/>
      <point x="114.0" y="438.0"/>
      <point x="152.0" y="438.0" type="curve" smooth="yes"/>
      <point x="188.0" y="437.0"/>
      <point x="260.0" y="384.0"/>
      <point x="260.0" y="384.0" type="curve"/>
      <point x="260.0" y="384.0"/>
      <point x="275.0" y="406.0"/>
      <point x="263.0" y="420.0" type="curve" smooth="yes"/>
      <point x="245.0" y="443.0"/>
      <point x="181.0" y="466.0"/>
    </contour>
    <contour>
      <point x="150.0" y="322.0" type="curve" smooth="yes"/>
      <point x="112.0" y="322.0"/>
      <point x="30.0" y="265.0"/>
      <point x="30.0" y="265.0" type="curve"/>
      <point x="30.0" y="265.0"/>
      <point x="109.0" y="294.0"/>
      <point x="148.0" y="293.0" type="curve" smooth="yes"/>
      <point x="184.0" y="293.0"/>
      <point x="256.0" y="240.0"/>
      <point x="256.0" y="240.0" type="curve"/>
      <point x="256.0" y="240.0"/>
      <point x="270.0" y="262.0"/>
      <point x="259.0" y="275.0" type="curve" smooth="yes"/>
      <point x="240.0" y="298.0"/>
      <point x="177.0" y="322.0"/>
    </contour>
    <contour>
      <point x="172.0" y="626.0" type="curve" smooth="yes"/>
      <point x="132.0" y="626.0"/>
      <point x="48.0" y="571.0"/>
      <point x="48.0" y="571.0" type="curve"/>
      <point x="48.0" y="571.0"/>
      <point x="119.0" y="594.0"/>
      <point x="148.0" y="593.0" type="curve" smooth="yes"/>
      <point x="200.0" y="592.0"/>
      <point x="244.0" y="561.0"/>
      <point x="244.0" y="501.0" type="curve" smooth="yes"/>
      <point x="244.0" y="23.0" type="line"/>
      <point x="322.0" y="60.0" type="line"/>
      <point x="329.0" y="60.0"/>
      <point x="333.0" y="407.0"/>
      <point x="329.0" y="502.0" type="curve" smooth="yes"/>
      <point x="329.0" y="595.0"/>
      <point x="251.0" y="626.0"/>
    </contour>
    <contour>
      <point x="472.0" y="297.0" type="curve" smooth="yes"/>
      <point x="388.0" y="298.0"/>
      <point x="309.0" y="217.0"/>
      <point x="309.0" y="217.0" type="curve"/>
      <point x="321.0" y="180.0" type="line"/>
      <point x="321.0" y="180.0"/>
      <point x="396.0" y="243.0"/>
      <point x="431.0" y="242.0" type="curve" smooth="yes"/>
      <point x="482.0" y="242.0"/>
      <point x="524.0" y="178.0"/>
      <point x="522.0" y="128.0" type="curve" smooth="yes"/>
      <point x="520.1103515625" y="51.470314025878906"/>
      <point x="493.22607421875" y="51.710052490234375"/>
      <point x="464.118896484375" y="51.969608306884766" type="curve" smooth="yes"/>
      <point x="462.4186706542969" y="51.984771728515625"/>
      <point x="460.71087646484375" y="52.0"/>
      <point x="459.0" y="52.0" type="curve" smooth="yes"/>
      <point x="423.0" y="52.0"/>
      <point x="308.0" y="162.0"/>
      <point x="308.0" y="162.0" type="curve"/>
      <point x="304.0" y="79.0" type="line"/>
      <point x="304.0" y="79.0"/>
      <point x="399.0" y="1.0"/>
      <point x="452.0" y="1.0" type="curve" smooth="yes"/>
      <point x="509.0" y="3.0"/>
      <point x="609.0" y="92.0"/>
      <point x="614.0" y="159.0" type="curve" smooth="yes"/>
      <point x="618.0" y="207.0"/>
      <point x="545.0" y="297.0"/>
    </contour>
  </outline>
</glyph>
<glyph name="A" format="2">
  <advance width="727"/>
  <unicode hex="0041"/>
  <outline>
    <contour>
      <point x="207.0" y="346.0" type="curve"/>
      <point x="197.0" y="259.0" type="line"/>
      <point x="197.0" y="259.0"/>
      <point x="354.0" y="372.0"/>
      <point x="403.0" y="372.0" type="curve" smooth="yes"/>
      <point x="451.0" y="372.0"/>
      <point x="497.0" y="292.0"/>
      <point x="497.0" y="251.0" type="curve" smooth="yes"/>
      <point x="497.0" y="201.0"/>
      <point x="473.0" y="126.0"/>
      <point x="416.0" y="123.0" type="curve" smooth="yes"/>
      <point x="358.68719482421875" y="120.67650604248047"/>
      <point x="297.7752990722656" y="179.53732299804688"/>
      <point x="249.98919677734375" y="225.71435546875" type="curve" smooth="yes"/>
      <point x="236.0758056640625" y="239.1592559814453"/>
      <point x="223.27513122558594" y="251.5288848876953"/>
      <point x="212.0" y="261.0" type="curve"/>
      <point x="179.0" y="180.0" type="line"/>
      <point x="179.0" y="180.0"/>
      <point x="189.0" y="123.0"/>
      <point x="211.0" y="123.0" type="curve" smooth="yes"/>
      <point x="253.0" y="123.0"/>
      <point x="316.0" y="37.0"/>
      <point x="394.0" y="37.0" type="curve" smooth="yes"/>
      <point x="493.0" y="39.0"/>
      <point x="629.0" y="145.0"/>
      <point x="634.0" y="267.0" type="curve" smooth="yes"/>
      <point x="637.0" y="340.0"/>
      <point x="587.0" y="478.0"/>
      <point x="488.0" y="479.0" type="curve" smooth="yes"/>
      <point x="415.0" y="481.0"/>
      <point x="207.0" y="346.0"/>
    </contour>
    <contour>
      <point x="234.0" y="563.0" type="curve"/>
      <point x="227.0" y="492.0" type="line"/>
      <point x="227.0" y="492.0"/>
      <point x="377.0" y="612.0"/>
      <point x="472.0" y="613.0" type="curve" smooth="yes"/>
      <point x="495.67724609375" y="613.5381469726562"/>
      <point x="519.0648803710938" y="598.7289428710938"/>
      <point x="540.604736328125" y="585.0897827148438" type="curve" smooth="yes"/>
      <point x="559.0929565429688" y="573.3829345703125"/>
      <point x="576.2197875976562" y="562.5381469726562"/>
      <point x="591.0" y="563.0" type="curve" smooth="yes"/>
      <point x="624.0" y="563.0"/>
      <point x="666.0" y="611.0"/>
      <point x="666.0" y="641.0" type="curve" smooth="yes"/>
      <point x="666.0" y="670.0"/>
      <point x="653.0" y="731.0"/>
      <point x="531.0" y="730.0" type="curve" smooth="yes"/>
      <point x="442.0" y="729.0"/>
      <point x="234.0" y="563.0"/>
    </contour>
    <contour>
      <point x="269.0" y="715.0" type="curve" smooth="yes"/>
      <point x="258.0" y="715.0"/>
      <point x="240.0" y="716.0"/>
      <point x="215.0" y="716.0" type="curve" smooth="yes"/>
      <point x="188.0" y="715.0"/>
      <point x="129.0" y="646.0"/>
      <point x="126.0" y="607.0" type="curve" smooth="yes"/>
      <point x="124.38359832763672" y="583.9662475585938"/>
      <point x="124.56346893310547" y="558.972900390625"/>
      <point x="124.7579116821289" y="531.9539794921875" type="curve" smooth="yes"/>
      <point x="125.0446548461914" y="492.1111755371094"/>
      <point x="125.36309051513672" y="447.86370849609375"/>
      <point x="120.0" y="399.0" type="curve" smooth="yes"/>
      <point x="108.0" y="290.0"/>
      <point x="61.0" y="1.0"/>
      <point x="61.0" y="1.0" type="curve"/>
      <point x="61.0" y="1.0"/>
      <point x="130.0" y="93.0"/>
      <point x="154.0" y="113.0" type="curve" smooth="yes"/>
      <point x="168.0" y="124.0"/>
      <point x="211.0" y="124.0"/>
      <point x="211.0" y="124.0" type="curve"/>
      <point x="211.0" y="124.0"/>
      <point x="245.0" y="548.0"/>
      <point x="254.0" y="639.0" type="curve" smooth="yes"/>
      <point x="256.0" y="657.0"/>
      <point x="270.0" y="675.0"/>
      <point x="275.0" y="688.0" type="curve"/>
      <point x="276.0" y="695.0"/>
      <point x="275.0" y="715.0"/>
    </contour>
  </outline>
</glyph>
<glyph name="B" format="2">
  <advance width="708"/>
  <unicode hex="0042"/>
  <outline>
    <contour>
      <point x="30.0" y="149.0" type="curve" smooth="yes"/>
      <point x="27.0" y="72.0"/>
      <point x="74.0" y="1.0"/>
      <point x="197.0" y="0.0" type="curve" smooth="yes"/>
      <point x="402.0" y="0.0"/>
      <point x="590.0" y="219.0"/>
      <point x="590.0" y="219.0" type="curve"/>
      <point x="590.0" y="219.0"/>
      <point x="405.0" y="86.0"/>
      <point x="289.0" y="85.0" type="curve" smooth="yes"/>
      <point x="174.0" y="84.0"/>
      <point x="167.0" y="228.0"/>
      <point x="170.0" y="297.0" type="curve" smooth="yes"/>
      <point x="174.0" y="420.0"/>
      <point x="304.0" y="522.0"/>
      <point x="304.0" y="522.0" type="curve"/>
      <point x="304.0" y="205.0" type="line"/>
      <point x="304.0" y="205.0"/>
      <point x="372.0" y="204.0"/>
      <point x="409.0" y="204.0" type="curve" smooth="yes"/>
      <point x="437.0" y="205.0"/>
      <point x="493.0" y="236.0"/>
      <point x="568.0" y="306.0" type="curve" smooth="yes"/>
      <point x="631.0" y="365.0"/>
      <point x="671.0" y="406.0"/>
      <point x="678.0" y="540.0" type="curve" smooth="yes"/>
      <point x="682.0" y="629.0"/>
      <point x="594.0" y="687.0"/>
      <point x="497.0" y="686.0" type="curve" smooth="yes"/>
      <point x="359.0" y="684.0"/>
      <point x="45.0" y="466.0"/>
    </contour>
    <contour>
      <point x="410.0" y="273.0" type="curve"/>
      <point x="418.0" y="581.0" type="line"/>
      <point x="418.0" y="581.0"/>
      <point x="457.0" y="617.0"/>
      <point x="488.0" y="618.0" type="curve" smooth="yes"/>
      <point x="534.0" y="618.0"/>
      <point x="553.0" y="550.0"/>
      <point x="552.0" y="504.0" type="curve" smooth="yes"/>
      <point x="549.0" y="288.0"/>
      <point x="410.0" y="273.0"/>
    </contour>
  </outline>
</glyph>
<glyph name="C" format="2">
	<advance width="581"/>
	<unicode hex="0043"/>
	<outline>
		<contour>
			<point x="30" y="353" type="curve"/>
			<point x="30" y="70"/>
			<point x="448" y="1"/>
			<point x="448" y="1" type="curve"/>
			<point x="551" y="64" type="line"/>
			<point x="551" y="723" type="line"/>
			<point x="489" y="723" type="line"/>
			<point x="489" y="723"/>
			<point x="35" y="594"/>
		</contour>
		<contour>
			<point x="179" y="381" type="curve" smooth="yes"/>
			<point x="179" y="549"/>
			<point x="418" y="629"/>
			<point x="448" y="642" type="curve"/>
			<point x="448" y="115" type="line"/>
			<point x="448" y="115"/>
			<point x="179" y="173"/>
		</contour>
	</outline>
</glyph>
<glyph name="D" format="2">
  <advance width="758"/>
  <unicode hex="0044"/>
  <outline>
    <contour>
      <point x="30.0" y="173.0" type="curve" smooth="yes"/>
      <point x="30.0" y="39.0"/>
      <point x="189.0" y="2.0"/>
      <point x="287.0" y="2.0" type="curve" smooth="yes"/>
      <point x="468.08673095703125" y="2.0"/>
      <point x="474.8943786621094" y="217.18809509277344"/>
      <point x="480.6272888183594" y="398.40325927734375" type="curve" smooth="yes"/>
      <point x="484.8350830078125" y="531.4108276367188"/>
      <point x="488.4638671875" y="646.116455078125"/>
      <point x="560.0" y="644.0" type="curve" smooth="yes"/>
      <point x="607.0" y="644.0"/>
      <point x="610.0" y="580.0"/>
      <point x="610.0" y="529.0" type="curve" smooth="yes"/>
      <point x="610.0" y="524.93896484375"/>
      <point x="609.9086303710938" y="520.6151733398438"/>
      <point x="609.8137817382812" y="516.1264038085938" type="curve" smooth="yes"/>
      <point x="609.0210571289062" y="478.6128845214844"/>
      <point x="607.9847412109375" y="429.572509765625"/>
      <point x="658.0" y="426.0" type="curve"/>
      <point x="698.0" y="426.0"/>
      <point x="728.0" y="493.0"/>
      <point x="728.0" y="542.0" type="curve" smooth="yes"/>
      <point x="728.0" y="607.0"/>
      <point x="643.0" y="713.0"/>
      <point x="569.0" y="713.0" type="curve" smooth="yes"/>
      <point x="436.0" y="715.0"/>
      <point x="28.0" y="405.0"/>
    </contour>
    <contour>
      <point x="139.0" y="218.0" type="curve" smooth="yes"/>
      <point x="136.0" y="371.0"/>
      <point x="408.0" y="576.0"/>
      <point x="408.0" y="576.0" type="curve"/>
      <point x="408.0" y="576.0"/>
      <point x="426.0" y="102.0"/>
      <point x="273.0" y="99.0" type="curve" smooth="yes"/>
      <point x="213.0" y="99.0"/>
      <point x="139.0" y="136.0"/>
    </contour>
  </outline>
</glyph>
<glyph name="E" format="2">
  <advance width="754"/>
  <unicode hex="0045"/>
  <outline>
    <contour>
      <point x="186.0" y="787.0" type="curve"/>
      <point x="186.0" y="787.0"/>
      <point x="31.0" y="701.0"/>
      <point x="30.0" y="638.0" type="curve"/>
      <point x="30.0" y="572.0"/>
      <point x="96.0" y="542.0"/>
      <point x="147.0" y="541.0" type="curve" smooth="yes"/>
      <point x="174.15199279785156" y="541.0"/>
      <point x="211.1337127685547" y="559.84033203125"/>
      <point x="250.71670532226562" y="580.005859375" type="curve" smooth="yes"/>
      <point x="298.60357666015625" y="604.40185546875"/>
      <point x="350.2975769042969" y="630.7373046875"/>
      <point x="393.0" y="628.0" type="curve"/>
      <point x="544.0" y="628.0"/>
      <point x="574.0" y="441.0"/>
      <point x="574.0" y="348.0" type="curve" smooth="yes"/>
      <point x="575.0" y="255.0"/>
      <point x="562.0" y="74.0"/>
      <point x="397.0" y="70.0" type="curve" smooth="yes"/>
      <point x="303.0" y="70.0"/>
      <point x="180.0" y="172.0"/>
      <point x="180.0" y="172.0" type="curve"/>
      <point x="97.0" y="81.0" type="line"/>
      <point x="97.0" y="81.0"/>
      <point x="171.0" y="1.0"/>
      <point x="374.0" y="1.0" type="curve" smooth="yes"/>
      <point x="542.0" y="2.0"/>
      <point x="724.0" y="114.0"/>
      <point x="724.0" y="361.0" type="curve" smooth="yes"/>
      <point x="729.0" y="475.0"/>
      <point x="684.0" y="696.0"/>
      <point x="434.0" y="696.0" type="curve" smooth="yes"/>
      <point x="388.02960205078125" y="696.0"/>
      <point x="332.9448547363281" y="679.656982421875"/>
      <point x="285.1318359375" y="665.471435546875" type="curve" smooth="yes"/>
      <point x="247.65805053710938" y="654.3533935546875"/>
      <point x="214.651123046875" y="644.5606079101562"/>
      <point x="194.0" y="645.0" type="curve" smooth="yes"/>
      <point x="169.0" y="646.0"/>
      <point x="149.0" y="666.0"/>
      <point x="149.0" y="702.0" type="curve" smooth="yes"/>
      <point x="149.0" y="734.0"/>
      <point x="186.0" y="787.0"/>
    </contour>
    <contour>
      <point x="205.0" y="406.0" type="line"/>
      <point x="132.0" y="324.0" type="line"/>
      <point x="600.0" y="324.0" type="line"/>
      <point x="602.0" y="406.0" type="line"/>
      <point x="205.0" y="406.0" type="line"/>
    </contour>
  </outline>
</glyph>
<glyph name="F" format="2">
	<advance width="633"/>
	<unicode hex="0046"/>
	<outline>
		<contour>
			<point x="303" y="778" type="curve" smooth="yes"/>
			<point x="115" y="778"/>
			<point x="30" y="666"/>
			<point x="30" y="567" type="curve" smooth="yes"/>
			<point x="30" y="25" type="line"/>
			<point x="55" y="1" type="line"/>
			<point x="149" y="87" type="line"/>
			<point x="147" y="87"/>
			<point x="147" y="501"/>
			<point x="147" y="602" type="curve" smooth="yes"/>
			<point x="147" y="679"/>
			<point x="252" y="692"/>
			<point x="307" y="692" type="curve" smooth="yes"/>
			<point x="474" y="692"/>
			<point x="453" y="536"/>
			<point x="515" y="536" type="curve" smooth="yes"/>
			<point x="570" y="536"/>
			<point x="603" y="600"/>
			<point x="603" y="644" type="curve" smooth="yes"/>
			<point x="603" y="697"/>
			<point x="482" y="778"/>
		</contour>
	</outline>
</glyph>
<glyph name="G" format="2">
  <advance width="758"/>
  <unicode hex="0047"/>
  <outline>
    <contour>
      <point x="30" y="273" type="curve" smooth="yes"/>
      <point x="30" y="95"/>
      <point x="368" y="1"/>
      <point x="386" y="1" type="curve" smooth="yes"/>
      <point x="409" y="1"/>
      <point x="434" y="1"/>
      <point x="434" y="1" type="curve"/>
      <point x="555" y="72" type="line"/>
      <point x="557" y="762" type="line"/>
      <point x="557" y="762" type="line"/>
      <point x="461" y="761" type="line"/>
      <point x="461" y="761"/>
      <point x="29" y="575"/>
      <point x="31" y="431" type="curve" smooth="yes"/>
      <point x="32" y="372"/>
      <point x="30" y="340"/>
    </contour>
    <contour>
      <point x="165" y="417" type="curve" smooth="yes"/>
      <point x="165" y="516"/>
      <point x="431" y="660"/>
      <point x="431" y="660" type="curve"/>
      <point x="434" y="119" type="line"/>
      <point x="434" y="119"/>
      <point x="413" y="119"/>
      <point x="384" y="120" type="curve" smooth="yes"/>
      <point x="345" y="121"/>
      <point x="169" y="228"/>
      <point x="167" y="305" type="curve" smooth="yes"/>
      <point x="166" y="340"/>
      <point x="165" y="380"/>
    </contour>
    <contour>
      <point x="270" y="356" type="line"/>
      <point x="497" y="355" type="line"/>
      <point x="500" y="337" type="line"/>
      <point x="673" y="338" type="line"/>
      <point x="728" y="438" type="line"/>
      <point x="326" y="439" type="line"/>
    </contour>
  </outline>
</glyph>
<glyph name="H" format="2">
  <advance width="732"/>
  <unicode hex="0048"/>
  <outline>
    <contour>
      <point x="167.0" y="785.0" type="line"/>
      <point x="30.0" y="679.0" type="line"/>
      <point x="124.0" y="637.0" type="line"/>
      <point x="123.0" y="19.0" type="line"/>
      <point x="234.0" y="80.0" type="line"/>
      <point x="235.0" y="763.0" type="line"/>
      <point x="216.0" y="783.0" type="line"/>
    </contour>
    <contour>
      <point x="439.0" y="747.0" type="curve"/>
      <point x="444.0" y="727.0"/>
      <point x="479.0" y="721.0"/>
      <point x="480.0" y="695.0" type="curve" smooth="yes"/>
      <point x="482.0" y="641.0"/>
      <point x="382.0" y="573.0"/>
      <point x="330.0" y="538.0" type="curve" smooth="yes"/>
      <point x="269.0" y="497.0"/>
      <point x="163.0" y="361.0"/>
      <point x="163.0" y="361.0" type="curve"/>
      <point x="163.0" y="361.0"/>
      <point x="337.0" y="497.0"/>
      <point x="397.0" y="494.0" type="curve" smooth="yes"/>
      <point x="456.0" y="491.0"/>
      <point x="549.0" y="426.0"/>
      <point x="552.0" y="358.0" type="curve" smooth="yes"/>
      <point x="558.0" y="199.0"/>
      <point x="380.0" y="1.0"/>
      <point x="380.0" y="1.0" type="curve"/>
      <point x="380.0" y="1.0"/>
      <point x="702.0" y="147.0"/>
      <point x="702.0" y="394.0" type="curve" smooth="yes"/>
      <point x="702.0" y="558.0"/>
      <point x="531.0" y="568.0"/>
      <point x="531.0" y="568.0" type="curve"/>
      <point x="531.0" y="568.0"/>
      <point x="626.0" y="661.0"/>
      <point x="626.0" y="700.0" type="curve" smooth="yes"/>
      <point x="625.0" y="735.0"/>
      <point x="598.0" y="779.0"/>
      <point x="568.0" y="780.0" type="curve" smooth="yes"/>
      <point x="536.0" y="780.0"/>
      <point x="436.0" y="764.0"/>
    </contour>
  </outline>
</glyph>
<glyph name="I" format="2">
  <advance width="303"/>
  <unicode hex="0049"/>
  <outline>
    <contour>
      <point x="56.0" y="628.0" type="line"/>
      <point x="56.0" y="597.0" type="line"/>
      <point x="144.0" y="597.0" type="line"/>
      <point x="30.0" y="1.0" type="line"/>
      <point x="161.0" y="1.0" type="line"/>
      <point x="273.0" y="527.0" type="line"/>
      <point x="273.0" y="745.0" type="line"/>
      <point x="197.0" y="745.0" type="line"/>
    </contour>
  </outline>
</glyph>
<glyph name="J" format="2">
	<advance width="589"/>
	<unicode hex="004A"/>
	<outline>
		<contour>
			<point x="45" y="599" type="line"/>
			<point x="105" y="600" type="line" smooth="yes"/>
			<point x="134" y="600"/>
			<point x="30" y="284"/>
			<point x="30" y="184" type="curve" smooth="yes"/>
			<point x="30" y="83"/>
			<point x="78" y="0"/>
			<point x="277" y="0" type="curve" smooth="yes"/>
			<point x="454" y="0"/>
			<point x="532" y="106"/>
			<point x="554" y="186" type="curve"/>
			<point x="554" y="186"/>
			<point x="420" y="95"/>
			<point x="306" y="95" type="curve" smooth="yes"/>
			<point x="145" y="95"/>
			<point x="151" y="193"/>
			<point x="162" y="284" type="curve" smooth="yes"/>
			<point x="217" y="732" type="line"/>
			<point x="182" y="732" type="line"/>
			<point x="45" y="633" type="line"/>
		</contour>
		<contour>
			<point x="143" y="410" type="line"/>
			<point x="141" y="337" type="line"/>
			<point x="514" y="337" type="line"/>
			<point x="559" y="410" type="line"/>
		</contour>
	</outline>
</glyph>
<glyph name="K" format="2">
  <advance width="675"/>
  <unicode hex="004B"/>
  <outline>
    <contour>
      <point x="147.0" y="724.0" type="line"/>
      <point x="30.0" y="593.0" type="line"/>
      <point x="87.0" y="593.0" type="line"/>
      <point x="52.0" y="295.0" type="line"/>
      <point x="52.0" y="295.0"/>
      <point x="210.0" y="326.0"/>
      <point x="216.0" y="430.0" type="curve" smooth="yes"/>
      <point x="219.0" y="476.0"/>
      <point x="294.0" y="615.0"/>
      <point x="379.0" y="613.0" type="curve" smooth="yes"/>
      <point x="485.0" y="611.0"/>
      <point x="495.0" y="527.0"/>
      <point x="496.0" y="492.0" type="curve" smooth="yes"/>
      <point x="498.0" y="422.0"/>
      <point x="453.0" y="403.0"/>
      <point x="432.0" y="403.0" type="curve" smooth="yes"/>
      <point x="403.60321044921875" y="404.01416015625"/>
      <point x="388.5774841308594" y="408.8853759765625"/>
      <point x="374.92694091796875" y="413.3107604980469" type="curve" smooth="yes"/>
      <point x="361.65789794921875" y="417.6124572753906"/>
      <point x="349.688232421875" y="421.492919921875"/>
      <point x="328.0" y="421.0" type="curve" smooth="yes"/>
      <point x="267.0" y="420.0"/>
      <point x="237.0" y="386.0"/>
      <point x="235.0" y="346.0" type="curve" smooth="yes"/>
      <point x="234.52349853515625" y="333.611083984375"/>
      <point x="234.330810546875" y="319.6328125"/>
      <point x="234.12442016601562" y="304.6602478027344" type="curve" smooth="yes"/>
      <point x="233.46453857421875" y="256.7884521484375"/>
      <point x="232.66452026367188" y="198.75210571289062"/>
      <point x="222.0" y="150.0" type="curve" smooth="yes"/>
      <point x="209.0" y="89.0"/>
      <point x="92.0" y="1.0"/>
      <point x="92.0" y="1.0" type="curve"/>
      <point x="92.0" y="1.0"/>
      <point x="289.0" y="-23.0"/>
      <point x="347.0" y="143.0" type="curve" smooth="yes"/>
      <point x="371.0" y="209.0"/>
      <point x="397.0" y="334.0"/>
      <point x="397.0" y="334.0" type="curve"/>
      <point x="397.0" y="334.0"/>
      <point x="645.0" y="307.0"/>
      <point x="645.0" y="554.0" type="curve" smooth="yes"/>
      <point x="645.0" y="690.0"/>
      <point x="552.0" y="723.0"/>
      <point x="456.0" y="723.0" type="curve" smooth="yes"/>
      <point x="354.0" y="724.0"/>
      <point x="233.0" y="622.0"/>
      <point x="233.0" y="622.0" type="curve"/>
      <point x="234.0" y="723.0" type="line"/>
      <point x="147.0" y="723.0" type="line"/>
    </contour>
  </outline>
</glyph>
<glyph name="L" format="2">
	<advance width="636"/>
	<unicode hex="004C"/>
	<outline>
		<contour>
			<point x="459" y="726" type="line"/>
			<point x="407" y="727" type="line"/>
			<point x="272" y="631" type="line"/>
			<point x="272" y="578" type="line"/>
			<point x="326" y="580" type="line"/>
			<point x="255" y="113" type="line"/>
			<point x="93" y="113" type="line"/>
			<point x="31" y="52" type="line"/>
			<point x="30" y="1" type="line"/>
			<point x="360" y="1" type="line"/>
			<point x="494" y="23" type="line"/>
			<point x="606" y="194" type="line"/>
			<point x="440" y="76" type="line"/>
			<point x="383" y="78" type="line"/>
		</contour>
	</outline>
</glyph>
<glyph name="M" format="2">
  <advance width="935"/>
  <unicode hex="004D"/>
  <outline>
    <contour>
      <point x="158.0" y="763.0" type="curve" smooth="yes"/>
      <point x="115.0" y="763.0"/>
      <point x="30.0" y="702.0"/>
      <point x="30.0" y="647.0" type="curve"/>
      <point x="29.299129486083984" y="576.2120361328125"/>
      <point x="29.580698013305664" y="436.1620788574219"/>
      <point x="29.811861038208008" y="321.18328857421875" type="curve" smooth="yes"/>
      <point x="29.9105224609375" y="272.1107482910156"/>
      <point x="30.0" y="227.60507202148438"/>
      <point x="30.0" y="195.0" type="curve" smooth="yes"/>
      <point x="30.0" y="140.0"/>
      <point x="101.0" y="21.0"/>
      <point x="151.0" y="20.0" type="curve" smooth="yes"/>
      <point x="200.0" y="19.0"/>
      <point x="288.0" y="20.0"/>
      <point x="288.0" y="20.0" type="curve"/>
      <point x="385.0" y="132.0" type="line"/>
      <point x="385.0" y="130.0"/>
      <point x="457.0" y="1.0"/>
      <point x="536.0" y="1.0" type="curve" smooth="yes"/>
      <point x="610.0" y="1.0"/>
      <point x="658.0" y="130.0"/>
      <point x="658.0" y="130.0" type="curve"/>
      <point x="541.0" y="130.0" type="line"/>
      <point x="266.0" y="662.0" type="line"/>
      <point x="266.0" y="662.0"/>
      <point x="220.0" y="762.0"/>
    </contour>
    <contour>
      <point x="385.0" y="132.0" type="line"/>
      <point x="385.0" y="132.0"/>
      <point x="243.0" y="129.0"/>
      <point x="201.0" y="130.0" type="curve" smooth="yes"/>
      <point x="181.0" y="131.0"/>
      <point x="140.0" y="172.0"/>
      <point x="140.0" y="192.0" type="curve" smooth="yes"/>
      <point x="140.0" y="615.0" type="line"/>
    </contour>
    <contour>
      <point x="383.0" y="745.0" type="curve" smooth="yes"/>
      <point x="326.0" y="740.0"/>
      <point x="239.0" y="673.0"/>
      <point x="238.0" y="636.0" type="curve" smooth="yes"/>
      <point x="237.5826873779297" y="626.4016723632812"/>
      <point x="257.7156677246094" y="627.0784912109375"/>
      <point x="282.9911804199219" y="627.9281616210938" type="curve" smooth="yes"/>
      <point x="318.28204345703125" y="629.1145629882812"/>
      <point x="363.59832763671875" y="630.637939453125"/>
      <point x="377.0" y="605.0" type="curve" smooth="yes"/>
      <point x="415.0" y="531.0"/>
      <point x="526.0" y="330.0"/>
      <point x="582.0" y="220.0" type="curve" smooth="yes"/>
      <point x="625.0" y="136.0"/>
      <point x="629.0" y="3.0"/>
      <point x="740.0" y="1.0" type="curve" smooth="yes"/>
      <point x="819.0" y="-1.0"/>
      <point x="905.0" y="130.0"/>
      <point x="905.0" y="130.0" type="curve"/>
      <point x="774.0" y="130.0" type="line"/>
      <point x="491.0" y="676.0" type="line"/>
      <point x="491.0" y="676.0"/>
      <point x="451.0" y="751.0"/>
    </contour>
  </outline>
</glyph>
<glyph name="N" format="2">
	<advance width="804"/>
	<unicode hex="004E"/>
	<outline>
		<contour>
			<point x="145" y="752" type="line"/>
			<point x="145" y="750" type="line"/>
			<point x="242" y="750" type="line"/>
			<point x="219" y="73" type="line"/>
			<point x="104" y="1" type="line"/>
			<point x="104" y="1"/>
			<point x="103" y="390"/>
			<point x="102" y="494" type="curve"/>
			<point x="101" y="541"/>
			<point x="86" y="624"/>
			<point x="86" y="624" type="curve"/>
			<point x="31" y="643" type="line"/>
			<point x="30" y="677" type="line"/>
		</contour>
		<contour>
			<point x="443" y="751" type="line"/>
			<point x="443" y="750" type="line"/>
			<point x="774" y="750" type="line"/>
			<point x="713" y="660" type="line"/>
			<point x="561" y="660" type="line"/>
			<point x="561" y="660"/>
			<point x="720" y="479"/>
			<point x="719" y="377" type="curve"/>
			<point x="719" y="257"/>
			<point x="641" y="100"/>
			<point x="489" y="100" type="curve"/>
			<point x="316" y="101"/>
			<point x="199" y="303"/>
			<point x="199" y="303" type="curve"/>
			<point x="198" y="413" type="line"/>
			<point x="198" y="413"/>
			<point x="337" y="235"/>
			<point x="440" y="235" type="curve"/>
			<point x="495" y="235"/>
			<point x="584" y="281"/>
			<point x="584" y="411" type="curve"/>
			<point x="586" y="607"/>
			<point x="391" y="646"/>
			<point x="391" y="646" type="curve"/>
		</contour>
	</outline>
</glyph>
<glyph name="O" format="2">
  <advance width="749"/>
  <unicode hex="004F"/>
  <outline>
    <contour>
      <point x="30.0" y="297.0" type="curve" smooth="yes"/>
      <point x="30.0" y="138.0"/>
      <point x="77.0" y="1.0"/>
      <point x="311.0" y="1.0" type="curve" smooth="yes"/>
      <point x="519.0" y="1.0"/>
      <point x="719.0" y="251.0"/>
      <point x="719.0" y="430.0" type="curve" smooth="yes"/>
      <point x="719.0" y="568.0"/>
      <point x="661.0" y="725.0"/>
      <point x="444.0" y="725.0" type="curve" smooth="yes"/>
      <point x="249.0" y="725.0"/>
      <point x="30.0" y="471.0"/>
    </contour>
    <contour>
      <point x="148.0" y="347.0" type="curve" smooth="yes"/>
      <point x="164.0" y="477.0"/>
      <point x="237.0" y="577.0"/>
      <point x="371.0" y="604.0" type="curve" smooth="yes"/>
      <point x="558.0" y="642.0"/>
      <point x="630.0" y="437.0"/>
      <point x="606.0" y="353.0" type="curve" smooth="yes"/>
      <point x="567.0" y="218.0"/>
      <point x="551.0" y="154.0"/>
      <point x="364.0" y="119.0" type="curve" smooth="yes"/>
      <point x="262.0" y="100.0"/>
      <point x="135.0" y="239.0"/>
    </contour>
  </outline>
</glyph>
<glyph name="P" format="2">
	<advance width="716"/>
	<unicode hex="0050"/>
	<outline>
		<contour>
			<point x="501" y="731" type="curve" smooth="yes"/>
			<point x="353" y="739"/>
			<point x="17" y="596"/>
			<point x="30" y="243" type="curve" smooth="yes"/>
			<point x="30" y="128"/>
			<point x="180" y="6"/>
			<point x="180" y="6" type="curve"/>
			<point x="323" y="6" type="line"/>
			<point x="378" y="61" type="line"/>
			<point x="406" y="432" type="line"/>
			<point x="406" y="432"/>
			<point x="543" y="459"/>
			<point x="552" y="299" type="curve" smooth="yes"/>
			<point x="557" y="209"/>
			<point x="374" y="1"/>
			<point x="374" y="1" type="curve"/>
			<point x="374" y="1"/>
			<point x="686" y="81"/>
			<point x="686" y="332" type="curve" smooth="yes"/>
			<point x="689" y="441"/>
			<point x="613" y="526"/>
			<point x="512" y="526" type="curve" smooth="yes"/>
			<point x="450.00476" y="527.2652"/>
			<point x="420.4248" y="499.71686"/>
			<point x="397.69083" y="478.54431" type="curve" smooth="yes"/>
			<point x="384.4877" y="466.24802"/>
			<point x="373.59363" y="456.10217"/>
			<point x="360" y="455" type="curve" smooth="yes"/>
			<point x="332" y="452"/>
			<point x="301" y="452"/>
			<point x="301" y="452" type="curve"/>
			<point x="281" y="103" type="line"/>
			<point x="281" y="103"/>
			<point x="116" y="76"/>
			<point x="116" y="292" type="curve" smooth="yes"/>
			<point x="113" y="360"/>
			<point x="192" y="658"/>
			<point x="412" y="658" type="curve" smooth="yes"/>
			<point x="478" y="658"/>
			<point x="531" y="618"/>
			<point x="575" y="618" type="curve" smooth="yes"/>
			<point x="615" y="618"/>
			<point x="680" y="637"/>
			<point x="680" y="677" type="curve" smooth="yes"/>
			<point x="679" y="705"/>
			<point x="591" y="726"/>
		</contour>
	</outline>
</glyph>
<glyph name="Q" format="2">
	<advance width="743"/>
	<unicode hex="0051"/>
	<outline>
		<contour>
			<point x="466" y="761" type="curve" smooth="yes"/>
			<point x="279" y="761"/>
			<point x="141" y="596"/>
			<point x="142" y="487" type="curve" smooth="yes"/>
			<point x="142" y="364"/>
			<point x="317" y="316"/>
			<point x="317" y="316" type="curve"/>
			<point x="317" y="316"/>
			<point x="278" y="177"/>
			<point x="230" y="126" type="curve" smooth="yes"/>
			<point x="147" y="37"/>
			<point x="30" y="51"/>
			<point x="30" y="51" type="curve"/>
			<point x="30" y="51"/>
			<point x="173" y="-65"/>
			<point x="319" y="68" type="curve" smooth="yes"/>
			<point x="373" y="117"/>
			<point x="426" y="199"/>
			<point x="426" y="271" type="curve" smooth="yes"/>
			<point x="426" y="481" type="line" smooth="yes"/>
			<point x="426" y="483"/>
			<point x="409" y="484"/>
			<point x="380" y="483" type="curve" smooth="yes"/>
			<point x="359" y="483"/>
			<point x="361" y="450"/>
			<point x="329" y="449" type="curve" smooth="yes"/>
			<point x="306" y="449"/>
			<point x="296" y="499"/>
			<point x="296" y="528" type="curve" smooth="yes"/>
			<point x="301" y="635"/>
			<point x="393" y="709"/>
			<point x="466" y="709" type="curve" smooth="yes"/>
			<point x="542" y="708"/>
			<point x="615" y="681"/>
			<point x="615" y="577" type="curve" smooth="yes"/>
			<point x="616" y="453"/>
			<point x="551" y="421"/>
			<point x="551" y="421" type="curve"/>
			<point x="551" y="129" type="line"/>
			<point x="505" y="17" type="line"/>
			<point x="648" y="97" type="line"/>
			<point x="664" y="421" type="line"/>
			<point x="664" y="421"/>
			<point x="719" y="489"/>
			<point x="713" y="587" type="curve"/>
			<point x="713" y="647"/>
			<point x="659" y="764"/>
		</contour>
	</outline>
</glyph>
<glyph name="R" format="2">
	<advance width="732"/>
	<unicode hex="0052"/>
	<outline>
		<contour>
			<point x="209" y="799" type="line"/>
			<point x="209" y="799" type="line"/>
			<point x="278" y="730" type="line"/>
			<point x="278" y="730"/>
			<point x="292" y="730"/>
			<point x="318" y="730" type="curve"/>
			<point x="367" y="730"/>
			<point x="388" y="785"/>
			<point x="489" y="787" type="curve"/>
			<point x="606" y="788"/>
			<point x="701" y="659"/>
			<point x="702" y="606" type="curve"/>
			<point x="703" y="513"/>
			<point x="480" y="409"/>
			<point x="480" y="409" type="curve"/>
			<point x="442" y="147" type="line"/>
			<point x="625" y="194" type="line"/>
			<point x="401" y="59" type="line"/>
			<point x="303" y="59" type="line"/>
			<point x="345" y="466" type="line"/>
			<point x="395" y="469" type="line"/>
			<point x="445" y="521" type="line"/>
			<point x="445" y="521"/>
			<point x="536" y="518"/>
			<point x="537" y="605" type="curve"/>
			<point x="538" y="646"/>
			<point x="484" y="709"/>
			<point x="437" y="707" type="curve"/>
			<point x="404" y="706"/>
			<point x="381" y="672"/>
			<point x="350" y="653" type="curve"/>
			<point x="305" y="624"/>
			<point x="256" y="610"/>
			<point x="256" y="610" type="curve"/>
			<point x="256" y="610"/>
			<point x="198" y="232"/>
			<point x="182" y="128" type="curve"/>
			<point x="174" y="74"/>
			<point x="94" y="-3"/>
			<point x="68" y="-3" type="curve"/>
			<point x="60" y="-2"/>
			<point x="29" y="15"/>
			<point x="30" y="31" type="curve"/>
			<point x="44" y="155"/>
			<point x="124" y="672"/>
			<point x="124" y="672" type="curve"/>
			<point x="48" y="672" type="line"/>
		</contour>
	</outline>
</glyph>
<glyph name="S" format="2">
  <advance width="689"/>
  <unicode hex="0053"/>
  <outline>
    <contour>
      <point x="411.0" y="754.0" type="curve" smooth="yes"/>
      <point x="322.0" y="751.0"/>
      <point x="134.0" y="652.0"/>
      <point x="116.0" y="544.0" type="curve" smooth="yes"/>
      <point x="93.0" y="406.0"/>
      <point x="30.0" y="1.0"/>
      <point x="30.0" y="1.0" type="curve"/>
      <point x="194.0" y="85.0" type="line"/>
      <point x="194.0" y="85.0"/>
      <point x="219.0" y="398.0"/>
      <point x="225.0" y="502.0" type="curve" smooth="yes"/>
      <point x="230.0" y="605.0"/>
      <point x="330.0" y="678.0"/>
      <point x="393.0" y="680.0" type="curve" smooth="yes"/>
      <point x="507.0" y="680.0"/>
      <point x="596.0" y="532.0"/>
      <point x="596.0" y="532.0" type="curve"/>
      <point x="596.0" y="532.0"/>
      <point x="659.0" y="607.0"/>
      <point x="659.0" y="652.0" type="curve" smooth="yes"/>
      <point x="655.0" y="741.0"/>
      <point x="498.0" y="754.0"/>
    </contour>
    <contour>
      <point x="436.0" y="492.0" type="curve" smooth="yes"/>
      <point x="315.0" y="492.0"/>
      <point x="296.0" y="448.0"/>
      <point x="248.0" y="433.0" type="curve" smooth="yes"/>
      <point x="211.0" y="422.0"/>
      <point x="182.0" y="403.0"/>
      <point x="182.0" y="403.0" type="curve"/>
      <point x="186.0" y="268.0" type="line"/>
      <point x="186.0" y="268.0"/>
      <point x="350.0" y="384.0"/>
      <point x="392.0" y="384.0" type="curve" smooth="yes"/>
      <point x="436.0" y="384.0"/>
      <point x="481.0" y="336.0"/>
      <point x="479.0" y="285.0" type="curve"/>
      <point x="479.0" y="206.0"/>
      <point x="306.0" y="29.0"/>
      <point x="306.0" y="29.0" type="curve"/>
      <point x="410.0" y="29.0" type="line"/>
      <point x="410.0" y="29.0"/>
      <point x="625.0" y="161.0"/>
      <point x="625.0" y="290.0" type="curve" smooth="yes"/>
      <point x="625.1909790039062" y="294.90240478515625"/>
      <point x="625.4549560546875" y="300.00341796875"/>
      <point x="625.7268676757812" y="305.2576599121094" type="curve" smooth="yes"/>
      <point x="629.7255249023438" y="382.5294189453125"/>
      <point x="635.4388427734375" y="492.93634033203125"/>
    </contour>
  </outline>
</glyph>
<glyph name="T" format="2">
	<advance width="607"/>
	<unicode hex="0054"/>
	<outline>
		<contour>
			<point x="352" y="778" type="curve" smooth="yes"/>
			<point x="198" y="774"/>
			<point x="30" y="594"/>
			<point x="30" y="594" type="curve"/>
			<point x="30" y="594"/>
			<point x="218" y="709"/>
			<point x="290" y="706" type="curve" smooth="yes"/>
			<point x="359" y="706"/>
			<point x="463" y="669"/>
			<point x="464" y="570" type="curve" smooth="yes"/>
			<point x="464" y="451"/>
			<point x="463" y="1"/>
			<point x="463" y="1" type="curve"/>
			<point x="577" y="74" type="line"/>
			<point x="577" y="642" type="line" smooth="yes"/>
			<point x="578" y="726"/>
			<point x="440" y="778"/>
		</contour>
	</outline>
</glyph>
<glyph name="U" format="2">
	<advance width="827"/>
	<unicode hex="0055"/>
	<outline>
		<contour>
			<point x="315" y="615" type="curve"/>
			<point x="315" y="615"/>
			<point x="396" y="639"/>
			<point x="453" y="638" type="curve" smooth="yes"/>
			<point x="515" y="637"/>
			<point x="649" y="573"/>
			<point x="652" y="401" type="curve" smooth="yes"/>
			<point x="652" y="300"/>
			<point x="552" y="75"/>
			<point x="382" y="67" type="curve" smooth="yes"/>
			<point x="227" y="60"/>
			<point x="173" y="217"/>
			<point x="174" y="318" type="curve" smooth="yes"/>
			<point x="175" y="436"/>
			<point x="293" y="550"/>
			<point x="296" y="668" type="curve" smooth="yes"/>
			<point x="297" y="714"/>
			<point x="267" y="762"/>
			<point x="208" y="762" type="curve" smooth="yes"/>
			<point x="142" y="763"/>
			<point x="71" y="620"/>
			<point x="71" y="620" type="curve"/>
			<point x="181.96486" y="620" type="line"/>
			<point x="181.77945" y="616.61066"/>
			<point x="180.88972" y="587.2431"/>
			<point x="180" y="565" type="curve" smooth="yes"/>
			<point x="179.13719" y="535.66473"/>
			<point x="150.91672" y="490.69653"/>
			<point x="119.18366" y="440.13116" type="curve" smooth="yes"/>
			<point x="77.35855" y="373.48453"/>
			<point x="29.4314" y="297.1145"/>
			<point x="30" y="234" type="curve" smooth="yes"/>
			<point x="30" y="133"/>
			<point x="245" y="3"/>
			<point x="379" y="1" type="curve" smooth="yes"/>
			<point x="597" y="1"/>
			<point x="797" y="258"/>
			<point x="797" y="434" type="curve" smooth="yes"/>
			<point x="800" y="598"/>
			<point x="623" y="765"/>
			<point x="534" y="765" type="curve" smooth="yes"/>
			<point x="448" y="765"/>
			<point x="315" y="615"/>
		</contour>
		<contour>
			<point x="455" y="661" type="line"/>
			<point x="315" y="614" type="line"/>
			<point x="343" y="57" type="line"/>
			<point x="459" y="59" type="line"/>
		</contour>
	</outline>
</glyph>
<glyph name="V" format="2">
	<advance width="770"/>
	<unicode hex="0056"/>
	<outline>
		<contour>
			<point x="585" y="760" type="curve"/>
			<point x="585" y="760" type="line"/>
			<point x="733" y="760"/>
			<point x="740" y="672"/>
			<point x="740" y="591" type="curve"/>
			<point x="739" y="525"/>
			<point x="700" y="412"/>
			<point x="623" y="363" type="curve"/>
			<point x="486" y="277"/>
			<point x="30" y="1"/>
			<point x="30" y="1" type="curve"/>
			<point x="65" y="700" type="line"/>
			<point x="147" y="759" type="line"/>
			<point x="224" y="760" type="line"/>
			<point x="124" y="139" type="line"/>
			<point x="124" y="139"/>
			<point x="358" y="274"/>
			<point x="443" y="326" type="curve"/>
			<point x="511" y="367"/>
			<point x="574" y="453"/>
			<point x="576" y="518" type="curve"/>
			<point x="579" y="582"/>
			<point x="526" y="620"/>
			<point x="480" y="619" type="curve"/>
			<point x="427" y="617"/>
			<point x="265" y="469"/>
			<point x="265" y="469" type="curve"/>
			<point x="265" y="469"/>
			<point x="371" y="764"/>
		</contour>
	</outline>
</glyph>
<glyph name="W" format="2">
  <advance width="859"/>
  <unicode hex="0057"/>
  <outline>
    <contour>
      <point x="700.0" y="714.0" type="line"/>
      <point x="607.0" y="716.0"/>
      <point x="516.0" y="579.0"/>
      <point x="516.0" y="579.0" type="curve"/>
      <point x="516.0" y="579.0"/>
      <point x="594.0" y="585.0"/>
      <point x="624.0" y="584.0" type="curve" smooth="yes"/>
      <point x="652.0" y="583.0"/>
      <point x="684.0" y="560.0"/>
      <point x="685.0" y="511.0" type="curve" smooth="yes"/>
      <point x="685.0" y="447.0"/>
      <point x="639.0" y="395.0"/>
      <point x="603.0" y="355.0" type="curve" smooth="yes"/>
      <point x="529.0" y="275.0"/>
      <point x="275.0" y="9.0"/>
      <point x="275.0" y="9.0" type="curve"/>
      <point x="275.0" y="1.0"/>
      <point x="503.0" y="179.0"/>
      <point x="689.0" y="327.0" type="curve" smooth="yes"/>
      <point x="766.0" y="387.0"/>
      <point x="829.0" y="492.0"/>
      <point x="829.0" y="554.0" type="curve" smooth="yes"/>
      <point x="829.0" y="631.0"/>
      <point x="777.0" y="715.0"/>
      <point x="700.0" y="715.0" type="curve"/>
    </contour>
    <contour>
      <point x="461.0" y="719.0" type="line"/>
      <point x="379.0" y="718.0"/>
      <point x="268.0" y="576.0"/>
      <point x="268.0" y="576.0" type="curve"/>
      <point x="268.0" y="576.0"/>
      <point x="353.0" y="619.0"/>
      <point x="383.0" y="618.0" type="curve" smooth="yes"/>
      <point x="414.0" y="618.0"/>
      <point x="436.0" y="573.0"/>
      <point x="436.0" y="513.0" type="curve" smooth="yes"/>
      <point x="436.0" y="471.0"/>
      <point x="407.0" y="414.0"/>
      <point x="367.0" y="376.0" type="curve" smooth="yes"/>
      <point x="274.0" y="290.0"/>
      <point x="159.0" y="196.0"/>
      <point x="159.0" y="196.0" type="curve"/>
      <point x="159.0" y="196.0"/>
      <point x="207.0" y="547.0"/>
      <point x="221.0" y="635.0" type="curve" smooth="yes"/>
      <point x="227.0" y="665.0"/>
      <point x="224.0" y="719.0"/>
      <point x="178.0" y="720.0" type="curve" smooth="yes"/>
      <point x="147.0" y="720.0"/>
      <point x="47.0" y="628.0"/>
      <point x="47.0" y="628.0" type="curve"/>
      <point x="91.0" y="595.0" type="line"/>
      <point x="30.0" y="1.0" type="line"/>
      <point x="30.0" y="1.0"/>
      <point x="370.0" y="276.0"/>
      <point x="474.0" y="365.0" type="curve" smooth="yes"/>
      <point x="538.0" y="418.0"/>
      <point x="581.0" y="506.0"/>
      <point x="581.0" y="607.0" type="curve" smooth="yes"/>
      <point x="581.0" y="659.0"/>
      <point x="529.0" y="715.0"/>
      <point x="461.0" y="715.0" type="curve"/>
    </contour>
  </outline>
</glyph>
<glyph name="X" format="2">
  <advance width="870"/>
  <unicode hex="0058"/>
  <outline>
    <contour>
      <point x="677.0" y="679.0" type="curve" smooth="yes"/>
      <point x="640.0" y="680.0"/>
      <point x="568.0" y="642.0"/>
      <point x="568.0" y="642.0" type="curve"/>
      <point x="568.0" y="642.0"/>
      <point x="620.0" y="628.0"/>
      <point x="620.0" y="581.0" type="curve" smooth="yes"/>
      <point x="620.0" y="540.8460083007812"/>
      <point x="524.25634765625" y="481.1155700683594"/>
      <point x="410.50225830078125" y="410.149169921875" type="curve" smooth="yes"/>
      <point x="243.79461669921875" y="306.14727783203125"/>
      <point x="38.40559768676758" y="178.01368713378906"/>
      <point x="39.0" y="52.0" type="curve" smooth="yes"/>
      <point x="39.0" y="4.0"/>
      <point x="120.0" y="0.0"/>
      <point x="169.0" y="1.0" type="curve" smooth="yes"/>
      <point x="222.0" y="2.0"/>
      <point x="291.0" y="33.0"/>
      <point x="291.0" y="33.0" type="curve"/>
      <point x="291.0" y="33.0"/>
      <point x="224.0" y="58.0"/>
      <point x="225.0" y="80.0" type="curve" smooth="yes"/>
      <point x="229.0" y="256.0"/>
      <point x="816.0" y="438.0"/>
      <point x="816.0" y="627.0" type="curve" smooth="yes"/>
      <point x="816.0" y="676.0"/>
      <point x="741.0" y="679.0"/>
    </contour>
    <contour>
      <point x="254.0" y="712.0" type="curve" smooth="yes"/>
      <point x="70.0" y="712.0"/>
      <point x="30.0" y="493.0"/>
      <point x="30.0" y="493.0" type="curve"/>
      <point x="30.0" y="493.0"/>
      <point x="108.0" y="551.0"/>
      <point x="155.0" y="551.0" type="curve" smooth="yes"/>
      <point x="250.0" y="551.0"/>
      <point x="294.0" y="444.0"/>
      <point x="342.0" y="316.0" type="curve" smooth="yes"/>
      <point x="398.0" y="164.0"/>
      <point x="481.0" y="1.0"/>
      <point x="656.0" y="1.0" type="curve" smooth="yes"/>
      <point x="742.0" y="2.0"/>
      <point x="840.0" y="179.0"/>
      <point x="840.0" y="179.0" type="curve"/>
      <point x="840.0" y="179.0"/>
      <point x="754.0" y="127.0"/>
      <point x="709.0" y="127.0" type="curve"/>
      <point x="660.0" y="130.0"/>
      <point x="590.0" y="270.0"/>
      <point x="520.0" y="426.0" type="curve" smooth="yes"/>
      <point x="453.0" y="575.0"/>
      <point x="351.0" y="712.0"/>
    </contour>
  </outline>
</glyph>
<glyph name="Y" format="2">
	<advance width="777"/>
	<unicode hex="0059"/>
	<outline>
		<contour>
			<point x="617" y="736" type="line"/>
			<point x="516" y="737"/>
			<point x="398" y="594"/>
			<point x="398" y="594" type="curve"/>
			<point x="398" y="594"/>
			<point x="423" y="594"/>
			<point x="453" y="595" type="curve" smooth="yes"/>
			<point x="484" y="596"/>
			<point x="517" y="634"/>
			<point x="536" y="634" type="curve" smooth="yes"/>
			<point x="565" y="634"/>
			<point x="589" y="608"/>
			<point x="589" y="563" type="curve" smooth="yes"/>
			<point x="589" y="520"/>
			<point x="479" y="426"/>
			<point x="425" y="381" type="curve" smooth="yes"/>
			<point x="349" y="319"/>
			<point x="270" y="294"/>
			<point x="270" y="294" type="curve"/>
			<point x="270" y="294"/>
			<point x="271" y="369"/>
			<point x="276" y="450" type="curve" smooth="yes"/>
			<point x="279" y="502"/>
			<point x="311" y="581"/>
			<point x="312" y="621" type="curve" smooth="yes"/>
			<point x="312" y="669"/>
			<point x="294" y="737"/>
			<point x="261" y="737" type="curve" smooth="yes"/>
			<point x="169" y="734"/>
			<point x="109" y="595"/>
			<point x="109" y="595" type="curve"/>
			<point x="170" y="595" type="line"/>
			<point x="170" y="595"/>
			<point x="157" y="307"/>
			<point x="134" y="208" type="curve" smooth="yes"/>
			<point x="116" y="133"/>
			<point x="30" y="1"/>
			<point x="30" y="1" type="curve"/>
			<point x="30" y="1"/>
			<point x="117" y="-14"/>
			<point x="220" y="96" type="curve" smooth="yes"/>
			<point x="278" y="158"/>
			<point x="304" y="206"/>
			<point x="349" y="239" type="curve" smooth="yes"/>
			<point x="445" y="309"/>
			<point x="747" y="427"/>
			<point x="747" y="618" type="curve" smooth="yes"/>
			<point x="748" y="680"/>
			<point x="682" y="737"/>
			<point x="617" y="737" type="curve"/>
		</contour>
	</outline>
</glyph>
<glyph name="Z" format="2">
  <advance width="881"/>
  <unicode hex="005A"/>
  <outline>
    <contour>
      <point x="30.0" y="103.0" type="curve" smooth="yes"/>
      <point x="30.0" y="60.0"/>
      <point x="80.0" y="1.0"/>
      <point x="124.0" y="2.0" type="curve" smooth="yes"/>
      <point x="190.0" y="3.0"/>
      <point x="248.0" y="72.0"/>
      <point x="302.0" y="113.0" type="curve" smooth="yes"/>
      <point x="362.0" y="159.0"/>
      <point x="480.0" y="276.0"/>
      <point x="480.0" y="276.0" type="curve"/>
      <point x="457.0" y="2.0" type="line"/>
      <point x="817.0" y="168.0" type="line"/>
      <point x="817.0" y="168.0"/>
      <point x="733.0" y="149.0"/>
      <point x="705.0" y="148.0" type="curve" smooth="yes"/>
      <point x="681.0" y="147.0"/>
      <point x="611.0" y="150.0"/>
      <point x="611.0" y="150.0" type="curve"/>
      <point x="631.0" y="387.0" type="line"/>
      <point x="631.0" y="387.0"/>
      <point x="737.0" y="490.0"/>
      <point x="791.0" y="555.0" type="curve" smooth="yes"/>
      <point x="820.0" y="590.0"/>
      <point x="851.0" y="614.0"/>
      <point x="851.0" y="631.0" type="curve" smooth="yes"/>
      <point x="851.0" y="676.0"/>
      <point x="769.0" y="694.0"/>
      <point x="735.0" y="694.0" type="curve" smooth="yes"/>
      <point x="710.0" y="694.0"/>
      <point x="684.0" y="674.0"/>
      <point x="665.0" y="672.0" type="curve" smooth="yes"/>
      <point x="629.0" y="668.0"/>
      <point x="532.0" y="672.0"/>
      <point x="532.0" y="672.0" type="curve"/>
      <point x="532.0" y="672.0"/>
      <point x="502.0" y="732.0"/>
      <point x="470.0" y="733.0" type="curve" smooth="yes"/>
      <point x="420.0" y="735.0"/>
      <point x="249.0" y="589.0"/>
      <point x="249.0" y="589.0" type="curve"/>
      <point x="249.0" y="589.0"/>
      <point x="609.0" y="590.0"/>
      <point x="696.0" y="590.0" type="curve" smooth="yes"/>
      <point x="702.3359375" y="590.0"/>
      <point x="717.9496459960938" y="594.1036376953125"/>
      <point x="733.1192626953125" y="598.0905151367188" type="curve" smooth="yes"/>
      <point x="753.8628540039062" y="603.5424194335938"/>
      <point x="773.7760620117188" y="608.7760620117188"/>
      <point x="768.0" y="603.0" type="curve" smooth="yes"/>
      <point x="751.1709594726562" y="586.1709594726562"/>
      <point x="592.2439575195312" y="473.3033142089844"/>
      <point x="589.0488891601562" y="471.03472900390625" type="curve"/>
      <point x="589.2811279296875" y="471.29400634765625"/>
      <point x="589.332275390625" y="473.2878723144531"/>
      <point x="563.0" y="486.0" type="curve" smooth="yes"/>
      <point x="499.0" y="517.0"/>
      <point x="328.0" y="475.0"/>
      <point x="182.0" y="340.0" type="curve" smooth="yes"/>
      <point x="129.0" y="291.0"/>
      <point x="30.0" y="167.0"/>
    </contour>
    <contour>
      <point x="151.0" y="135.0" type="curve" smooth="yes"/>
      <point x="106.0" y="174.0"/>
      <point x="203.0" y="264.0"/>
      <point x="254.0" y="306.0" type="curve" smooth="yes"/>
      <point x="300.0" y="344.0"/>
      <point x="370.0" y="393.0"/>
      <point x="410.0" y="396.0" type="curve" smooth="yes"/>
      <point x="467.0" y="400.0"/>
      <point x="484.0" y="362.0"/>
      <point x="484.0" y="362.0" type="curve"/>
      <point x="484.0" y="362.0"/>
      <point x="385.0" y="262.0"/>
      <point x="335.0" y="225.0" type="curve" smooth="yes"/>
      <point x="332.4405517578125" y="223.1166229248047"/>
      <point x="329.7691345214844" y="221.14462280273438"/>
      <point x="326.99920654296875" y="219.09988403320312" type="curve" smooth="yes"/>
      <point x="272.41064453125" y="178.80328369140625"/>
      <point x="179.55125427246094" y="110.25558471679688"/>
    </contour>
  </outline>
</glyph>
<glyph name="a" format="2">
  <advance width="561"/>
  <unicode hex="0061"/>
  <outline>
    <contour>
      <point x="30.0" y="-116.0" type="line"/>
      <point x="214.0" y="92.0" type="line"/>
      <point x="215.0" y="573.0" type="line"/>
      <point x="151.0" y="573.0" type="line"/>
      <point x="51.0" y="463.0" type="line"/>
      <point x="124.0" y="424.0" type="line"/>
      <point x="124.0" y="76.0" type="line"/>
    </contour>
    <contour>
      <point x="187.0" y="293.0" type="curve"/>
      <point x="191.0" y="190.0" type="line"/>
      <point x="191.0" y="190.0"/>
      <point x="277.0" y="82.0"/>
      <point x="358.0" y="85.0" type="curve" smooth="yes"/>
      <point x="468.0" y="89.0"/>
      <point x="530.0" y="175.0"/>
      <point x="531.0" y="249.0" type="curve" smooth="yes"/>
      <point x="532.0" y="326.0"/>
      <point x="448.0" y="385.0"/>
      <point x="388.0" y="385.0" type="curve" smooth="yes"/>
      <point x="290.0" y="386.0"/>
      <point x="187.0" y="293.0"/>
    </contour>
    <contour>
      <point x="194.0" y="430.0" type="curve"/>
      <point x="194.0" y="346.0" type="line"/>
      <point x="194.0" y="346.0"/>
      <point x="299.0" y="487.0"/>
      <point x="355.0" y="490.0" type="curve" smooth="yes"/>
      <point x="381.7574768066406" y="491.274169921875"/>
      <point x="399.1798400878906" y="483.2132263183594"/>
      <point x="415.54150390625" y="475.6430358886719" type="curve" smooth="yes"/>
      <point x="424.86199951171875" y="471.33062744140625"/>
      <point x="433.83831787109375" y="467.177490234375"/>
      <point x="444.0" y="465.0" type="curve" smooth="yes"/>
      <point x="484.0" y="456.0"/>
      <point x="496.0" y="457.0"/>
      <point x="506.0" y="464.0" type="curve" smooth="yes"/>
      <point x="514.366943359375" y="469.3244323730469"/>
      <point x="513.4769287109375" y="481.01300048828125"/>
      <point x="512.5714111328125" y="492.9047546386719" type="curve" smooth="yes"/>
      <point x="512.2864990234375" y="496.6470642089844"/>
      <point x="512.0" y="500.40948486328125"/>
      <point x="512.0" y="504.0" type="curve" smooth="yes"/>
      <point x="512.0" y="529.0"/>
      <point x="445.0" y="558.0"/>
      <point x="392.0" y="556.0" type="curve" smooth="yes"/>
      <point x="288.0" y="552.0"/>
      <point x="194.0" y="430.0"/>
    </contour>
    <contour>
      <point x="233.0" y="250.0" type="curve"/>
      <point x="233.0" y="250.0"/>
      <point x="299.0" y="315.0"/>
      <point x="340.0" y="316.0" type="curve" smooth="yes"/>
      <point x="396.0" y="317.0"/>
      <point x="434.0" y="257.0"/>
      <point x="425.0" y="210.0" type="curve" smooth="yes"/>
      <point x="419.0" y="177.0"/>
      <point x="408.0" y="154.0"/>
      <point x="381.0" y="148.0" type="curve" smooth="yes"/>
      <point x="336.0" y="138.0"/>
      <point x="233.0" y="250.0"/>
    </contour>
  </outline>
</glyph>
<glyph name="b" format="2">
  <advance width="528"/>
  <unicode hex="0062"/>
  <outline>
    <contour>
      <point x="367.0" y="582.0" type="line"/>
      <point x="316.0" y="581.0" type="line"/>
      <point x="199.0" y="493.0" type="line"/>
      <point x="273.0" y="470.0" type="line"/>
      <point x="273.0" y="470.0"/>
      <point x="236.0" y="357.0"/>
      <point x="224.0" y="301.0" type="curve" smooth="yes"/>
      <point x="213.0" y="246.0"/>
      <point x="206.0" y="134.0"/>
      <point x="206.0" y="134.0" type="curve"/>
      <point x="310.0" y="208.0" type="line"/>
    </contour>
    <contour>
      <point x="366.0" y="418.0" type="curve" smooth="yes"/>
      <point x="280.0" y="416.0"/>
      <point x="37.0" y="239.0"/>
      <point x="30.0" y="103.0" type="curve" smooth="yes"/>
      <point x="26.0" y="36.0"/>
      <point x="141.0" y="1.0"/>
      <point x="204.0" y="1.0" type="curve" smooth="yes"/>
      <point x="328.0" y="0.0"/>
      <point x="408.0" y="115.0"/>
      <point x="408.0" y="115.0" type="curve"/>
      <point x="408.0" y="115.0"/>
      <point x="296.0" y="58.0"/>
      <point x="249.0" y="58.0" type="curve" smooth="yes"/>
      <point x="204.0" y="58.0"/>
      <point x="139.0" y="112.0"/>
      <point x="140.0" y="161.0" type="curve" smooth="yes"/>
      <point x="141.0" y="261.0"/>
      <point x="300.0" y="357.0"/>
      <point x="348.0" y="358.0" type="curve" smooth="yes"/>
      <point x="378.0" y="359.0"/>
      <point x="405.0" y="313.0"/>
      <point x="405.0" y="287.0" type="curve" smooth="yes"/>
      <point x="405.0" y="261.0"/>
      <point x="401.0" y="210.0"/>
      <point x="378.0" y="209.0" type="curve" smooth="yes"/>
      <point x="357.0" y="209.0"/>
      <point x="291.0" y="208.0"/>
      <point x="291.0" y="208.0" type="curve"/>
      <point x="206.0" y="134.0" type="line"/>
      <point x="206.0" y="134.0"/>
      <point x="319.0" y="131.0"/>
      <point x="365.0" y="135.0" type="curve" smooth="yes"/>
      <point x="422.0" y="141.0"/>
      <point x="498.0" y="241.0"/>
      <point x="498.0" y="320.0" type="curve" smooth="yes"/>
      <point x="498.0" y="368.0"/>
      <point x="420.0" y="419.0"/>
    </contour>
  </outline>
</glyph>
<glyph name="c" format="2">
	<advance width="432"/>
	<unicode hex="0063"/>
	<outline>
		<contour>
			<point x="402" y="556" type="line"/>
			<point x="402" y="556" type="line"/>
			<point x="402" y="201" type="line"/>
			<point x="311" y="163" type="line"/>
			<point x="309" y="481" type="line"/>
			<point x="309" y="481"/>
			<point x="140" y="449"/>
			<point x="140" y="262" type="curve"/>
			<point x="140" y="141"/>
			<point x="309" y="1"/>
			<point x="309" y="1" type="curve"/>
			<point x="309" y="1"/>
			<point x="26" y="14"/>
			<point x="30" y="230" type="curve"/>
			<point x="33" y="342"/>
			<point x="135" y="454"/>
			<point x="220" y="504" type="curve"/>
			<point x="278" y="538"/>
			<point x="328" y="538"/>
			<point x="328" y="538" type="curve"/>
			<point x="329" y="555" type="line"/>
		</contour>
	</outline>
</glyph>
<glyph name="d" format="2">
	<advance width="563"/>
	<unicode hex="0064"/>
	<outline>
		<contour>
			<point x="367" y="652" type="line"/>
			<point x="367" y="652" type="line"/>
			<point x="385" y="60" type="line"/>
			<point x="311" y="2" type="line"/>
			<point x="276" y="94" type="line"/>
			<point x="274" y="522" type="line"/>
			<point x="183" y="556" type="line"/>
			<point x="296" y="652" type="line"/>
		</contour>
		<contour>
			<point x="279" y="88" type="curve"/>
			<point x="279" y="88" type="line"/>
			<point x="311" y="1" type="line"/>
			<point x="311" y="1"/>
			<point x="204" y="1"/>
			<point x="149" y="1" type="curve"/>
			<point x="98" y="2"/>
			<point x="29" y="83"/>
			<point x="30" y="143" type="curve"/>
			<point x="32" y="350"/>
			<point x="326" y="449"/>
			<point x="419" y="448" type="curve"/>
			<point x="469" y="447"/>
			<point x="533" y="420"/>
			<point x="533" y="392" type="curve"/>
			<point x="534" y="372"/>
			<point x="484" y="336"/>
			<point x="460" y="337" type="curve"/>
			<point x="434" y="338"/>
			<point x="401" y="376"/>
			<point x="372" y="375" type="curve"/>
			<point x="313" y="374"/>
			<point x="144" y="301"/>
			<point x="141" y="183" type="curve"/>
			<point x="139" y="138"/>
			<point x="193" y="77"/>
			<point x="220" y="76" type="curve"/>
			<point x="257" y="74"/>
			<point x="279" y="88"/>
		</contour>
	</outline>
</glyph>
<glyph name="e" format="2">
  <advance width="520"/>
  <unicode hex="0065"/>
  <outline>
    <contour>
      <point x="237.0" y="494.0" type="curve" smooth="yes"/>
      <point x="134.0" y="494.0"/>
      <point x="57.0" y="391.0"/>
      <point x="57.0" y="391.0" type="curve"/>
      <point x="30.0" y="391.0" type="line"/>
      <point x="30.0" y="311.0" type="line"/>
      <point x="69.0" y="311.0" type="line"/>
      <point x="69.0" y="311.0"/>
      <point x="132.0" y="429.0"/>
      <point x="192.0" y="431.0" type="curve" smooth="yes"/>
      <point x="262.0" y="432.0"/>
      <point x="356.0" y="394.0"/>
      <point x="358.0" y="213.0" type="curve" smooth="yes"/>
      <point x="360.0" y="76.0"/>
      <point x="183.0" y="1.0"/>
      <point x="183.0" y="1.0" type="curve"/>
      <point x="183.0" y="1.0"/>
      <point x="490.0" y="37.0"/>
      <point x="490.0" y="255.0" type="curve" smooth="yes"/>
      <point x="491.0" y="437.0"/>
      <point x="317.0" y="494.0"/>
    </contour>
    <contour>
      <point x="116.0" y="281.0" type="line"/>
      <point x="59.0" y="198.0" type="line"/>
      <point x="386.0" y="198.0" type="line"/>
      <point x="379.0" y="281.0" type="line"/>
      <point x="116.0" y="281.0" type="line"/>
    </contour>
  </outline>
</glyph>
<glyph name="f" format="2">
  <advance width="508"/>
  <unicode hex="0066"/>
  <outline>
    <contour>
      <point x="286.0" y="629.0" type="curve" smooth="yes"/>
      <point x="219.0" y="627.0"/>
      <point x="105.0" y="543.0"/>
      <point x="89.0" y="440.0" type="curve" smooth="yes"/>
      <point x="72.0" y="328.0"/>
      <point x="30.0" y="1.0"/>
      <point x="30.0" y="1.0" type="curve"/>
      <point x="85.0" y="1.0" type="line"/>
      <point x="128.0" y="37.0" type="line"/>
      <point x="128.0" y="37.0"/>
      <point x="168.0" y="335.0"/>
      <point x="182.0" y="424.0" type="curve" smooth="yes"/>
      <point x="190.0" y="483.0"/>
      <point x="206.0" y="550.0"/>
      <point x="272.0" y="556.0" type="curve" smooth="yes"/>
      <point x="324.0" y="561.0"/>
      <point x="371.0" y="526.0"/>
      <point x="381.0" y="485.0" type="curve" smooth="yes"/>
      <point x="392.0" y="442.0"/>
      <point x="409.0" y="405.0"/>
      <point x="425.0" y="404.0" type="curve"/>
      <point x="440.0" y="404.0"/>
      <point x="486.0" y="468.0"/>
      <point x="477.0" y="511.0" type="curve" smooth="yes"/>
      <point x="461.0" y="584.0"/>
      <point x="353.0" y="631.0"/>
    </contour>
  </outline>
</glyph>
<glyph name="g" format="2">
	<advance width="585"/>
	<unicode hex="0067"/>
	<outline>
		<contour>
			<point x="460" y="499" type="line"/>
			<point x="460" y="499" type="line"/>
			<point x="448" y="152" type="line"/>
			<point x="318" y="98" type="line"/>
			<point x="318" y="242" type="line"/>
			<point x="349" y="242" type="line"/>
			<point x="349" y="415" type="line"/>
			<point x="349" y="415"/>
			<point x="147" y="392"/>
			<point x="151" y="180" type="curve"/>
			<point x="151" y="11"/>
			<point x="330" y="-118"/>
			<point x="330" y="-118" type="curve"/>
			<point x="330" y="-118"/>
			<point x="30" y="-66"/>
			<point x="30" y="151" type="curve"/>
			<point x="39" y="406"/>
			<point x="389" y="483"/>
			<point x="389" y="483" type="curve"/>
			<point x="392" y="499" type="line"/>
		</contour>
		<contour>
			<point x="555" y="368" type="line"/>
			<point x="555" y="371" type="line"/>
			<point x="555" y="298" type="line"/>
			<point x="245" y="298" type="line"/>
			<point x="299" y="371" type="line"/>
		</contour>
	</outline>
</glyph>
<glyph name="h" format="2">
  <advance width="558"/>
  <unicode hex="0068"/>
  <outline>
    <contour>
      <point x="188" y="650" type="line"/>
      <point x="147" y="651" type="line"/>
      <point x="30" y="549" type="line"/>
      <point x="102" y="518" type="line"/>
      <point x="102" y="1" type="line"/>
      <point x="197" y="56" type="line"/>
      <point x="197" y="130" type="line"/>
      <point x="183" y="131" type="line"/>
      <point x="183" y="650" type="line"/>
    </contour>
    <contour>
      <point x="428" y="445" type="line"/>
      <point x="421" y="446"/>
      <point x="412" y="428"/>
      <point x="406" y="427" type="curve"/>
      <point x="385" y="424"/>
      <point x="311" y="415"/>
      <point x="311" y="415" type="curve"/>
      <point x="311" y="415"/>
      <point x="350" y="405"/>
      <point x="350" y="390" type="curve"/>
      <point x="350" y="375"/>
      <point x="309" y="338"/>
      <point x="280" y="315" type="curve"/>
      <point x="254" y="294"/>
      <point x="196" y="278"/>
      <point x="163" y="254" type="curve"/>
      <point x="141" y="238"/>
      <point x="163" y="209"/>
      <point x="163" y="209" type="curve"/>
      <point x="163" y="209"/>
      <point x="269" y="251"/>
      <point x="338" y="294" type="curve"/>
      <point x="387" y="324"/>
      <point x="459" y="389"/>
      <point x="458" y="419" type="curve"/>
      <point x="458" y="433"/>
      <point x="438" y="445"/>
      <point x="428" y="445" type="curve"/>
    </contour>
    <contour>
      <point x="347" y="327" type="line"/>
      <point x="313" y="297" type="line"/>
      <point x="313" y="297"/>
      <point x="411" y="234"/>
      <point x="412" y="163" type="curve"/>
      <point x="412" y="90"/>
      <point x="304" y="7"/>
      <point x="304" y="7" type="curve"/>
      <point x="304" y="1"/>
      <point x="527" y="32"/>
      <point x="528" y="194" type="curve"/>
      <point x="528" y="261"/>
      <point x="347" y="327"/>
      <point x="347" y="327" type="curve"/>
    </contour>
  </outline>
</glyph>
<glyph name="i" format="2">
  <advance width="339"/>
  <unicode hex="0069"/>
  <outline>
    <contour>
      <point x="223.0" y="617.0" type="curve" smooth="yes"/>
      <point x="190.0" y="618.0"/>
      <point x="119.0" y="525.0"/>
      <point x="119.0" y="525.0" type="curve"/>
      <point x="30.0" y="524.0" type="line"/>
      <point x="30.0" y="524.0"/>
      <point x="30.0" y="495.0"/>
      <point x="31.0" y="481.0" type="curve"/>
      <point x="31.0" y="466.0"/>
      <point x="62.0" y="447.0"/>
      <point x="80.0" y="447.0" type="curve"/>
      <point x="84.7233657836914" y="446.57061767578125"/>
      <point x="90.92178344726562" y="453.5164794921875"/>
      <point x="98.12022399902344" y="461.58294677734375" type="curve" smooth="yes"/>
      <point x="107.68584442138672" y="472.30206298828125"/>
      <point x="119.017333984375" y="485.0"/>
      <point x="131.0" y="485.0" type="curve" smooth="yes"/>
      <point x="156.0" y="486.0"/>
      <point x="181.0" y="486.0"/>
      <point x="181.0" y="486.0" type="curve"/>
      <point x="181.0" y="1.0" type="line"/>
      <point x="309.0" y="64.0" type="line"/>
      <point x="309.0" y="64.0"/>
      <point x="310.0" y="463.0"/>
      <point x="309.0" y="557.0" type="curve" smooth="yes"/>
      <point x="308.0" y="590.0"/>
      <point x="256.0" y="617.0"/>
    </contour>
  </outline>
</glyph>
<glyph name="j" format="2">
  <advance width="529"/>
  <unicode hex="006A"/>
  <outline>
    <contour>
      <point x="200.0" y="634.0" type="curve"/>
      <point x="165.0" y="634.0" type="line"/>
      <point x="86.0" y="559.0" type="line"/>
      <point x="30.0" y="550.0" type="line"/>
      <point x="53.0" y="507.0" type="line"/>
      <point x="104.0" y="507.0" type="line"/>
      <point x="104.0" y="507.0"/>
      <point x="104.0" y="490.0"/>
      <point x="102.0" y="441.0" type="curve" smooth="yes"/>
      <point x="100.0" y="367.0"/>
      <point x="53.0" y="245.0"/>
      <point x="46.0" y="184.0" type="curve" smooth="yes"/>
      <point x="35.0" y="96.0"/>
      <point x="174.0" y="-1.0"/>
      <point x="252.0" y="1.0" type="curve" smooth="yes"/>
      <point x="375.0" y="1.0"/>
      <point x="499.0" y="165.0"/>
      <point x="499.0" y="165.0" type="curve"/>
      <point x="499.0" y="165.0"/>
      <point x="352.0" y="112.0"/>
      <point x="292.0" y="112.0" type="curve" smooth="yes"/>
      <point x="231.0" y="111.0"/>
      <point x="145.0" y="159.0"/>
      <point x="144.0" y="208.0" type="curve" smooth="yes"/>
      <point x="144.0" y="261.0"/>
      <point x="199.0" y="378.0"/>
      <point x="199.0" y="442.0" type="curve" smooth="yes"/>
      <point x="200.0" y="516.0"/>
      <point x="200.0" y="634.0"/>
    </contour>
    <contour>
      <point x="438.0" y="374.0" type="line"/>
      <point x="380.0" y="373.0"/>
      <point x="160.0" y="375.0"/>
      <point x="160.0" y="375.0" type="curve"/>
      <point x="146.0" y="301.0" type="line"/>
      <point x="146.0" y="300.0"/>
      <point x="367.0" y="300.0"/>
      <point x="426.0" y="300.0" type="curve"/>
      <point x="445.0" y="299.0"/>
      <point x="498.0" y="331.0"/>
      <point x="497.0" y="344.0" type="curve" smooth="yes"/>
      <point x="496.0" y="363.0"/>
      <point x="464.0" y="375.0"/>
      <point x="438.0" y="375.0" type="curve"/>
    </contour>
  </outline>
</glyph>
<glyph name="k" format="2">
  <advance width="505"/>
  <unicode hex="006B"/>
  <outline>
    <contour>
      <point x="163.0" y="591.0" type="curve"/>
      <point x="30.0" y="494.0" type="line"/>
      <point x="89.0" y="441.0" type="line"/>
      <point x="69.0" y="236.0" type="line"/>
      <point x="142.0" y="275.0" type="line"/>
      <point x="184.0" y="405.0" type="line"/>
      <point x="184.0" y="405.0"/>
      <point x="209.0" y="416.0"/>
      <point x="234.0" y="433.0" type="curve" smooth="yes"/>
      <point x="242.25526428222656" y="438.40863037109375"/>
      <point x="250.672607421875" y="444.46551513671875"/>
      <point x="258.8367919921875" y="450.34027099609375" type="curve" smooth="yes"/>
      <point x="279.3526611328125" y="465.1029357910156"/>
      <point x="298.26995849609375" y="478.71533203125"/>
      <point x="309.0" y="478.0" type="curve" smooth="yes"/>
      <point x="331.0" y="477.0"/>
      <point x="355.0" y="452.0"/>
      <point x="355.0" y="430.0" type="curve" smooth="yes"/>
      <point x="355.0" y="386.0"/>
      <point x="296.0" y="356.0"/>
      <point x="243.0" y="342.0" type="curve" smooth="yes"/>
      <point x="208.0" y="334.0"/>
      <point x="183.0" y="310.0"/>
      <point x="182.0" y="287.0" type="curve" smooth="yes"/>
      <point x="181.0" y="253.0"/>
      <point x="184.0" y="147.0"/>
      <point x="184.0" y="147.0" type="curve"/>
      <point x="55.0" y="1.0" type="line"/>
      <point x="55.0" y="1.0"/>
      <point x="108.0" y="-18.0"/>
      <point x="172.0" y="26.0" type="curve" smooth="yes"/>
      <point x="223.0" y="61.0"/>
      <point x="296.0" y="152.0"/>
      <point x="295.0" y="193.0" type="curve" smooth="yes"/>
      <point x="294.0" y="218.0"/>
      <point x="293.0" y="251.0"/>
      <point x="293.0" y="251.0" type="curve"/>
      <point x="293.0" y="251.0"/>
      <point x="474.0" y="262.0"/>
      <point x="475.0" y="474.0" type="curve" smooth="yes"/>
      <point x="475.0" y="527.0"/>
      <point x="408.0" y="592.0"/>
      <point x="365.0" y="593.0" type="curve" smooth="yes"/>
      <point x="343.8650207519531" y="593.4696655273438"/>
      <point x="310.81842041015625" y="570.7777709960938"/>
      <point x="279.9499816894531" y="549.5816040039062" type="curve" smooth="yes"/>
      <point x="245.09420776367188" y="525.6474609375"/>
      <point x="213.01568603515625" y="503.62030029296875"/>
      <point x="204.0" y="519.0" type="curve" smooth="yes"/>
      <point x="194.0" y="537.0"/>
      <point x="163.0" y="591.0"/>
    </contour>
  </outline>
</glyph>
<glyph name="l" format="2">
	<advance width="417"/>
	<unicode hex="006C"/>
	<outline>
		<contour>
			<point x="152" y="713" type="line"/>
			<point x="152" y="713" type="line"/>
			<point x="180" y="687" type="line"/>
			<point x="180" y="79" type="line"/>
			<point x="387" y="79" type="line"/>
			<point x="322" y="1" type="line"/>
			<point x="88" y="1" type="line"/>
			<point x="88" y="558" type="line"/>
			<point x="30" y="581" type="line"/>
			<point x="30" y="608" type="line"/>
		</contour>
	</outline>
</glyph>
<glyph name="m" format="2">
  <advance width="739"/>
  <unicode hex="006D"/>
  <outline>
    <contour>
      <point x="403" y="488" type="line"/>
      <point x="337" y="489"/>
      <point x="266" y="459"/>
      <point x="249" y="432" type="curve"/>
      <point x="241" y="419"/>
      <point x="276" y="369"/>
      <point x="276" y="369" type="curve"/>
      <point x="276" y="369"/>
      <point x="304" y="416"/>
      <point x="348" y="417" type="curve"/>
      <point x="384" y="418"/>
      <point x="417" y="303"/>
      <point x="437" y="241" type="curve"/>
      <point x="460" y="169"/>
      <point x="540" y="20"/>
      <point x="597" y="22" type="curve"/>
      <point x="640" y="22"/>
      <point x="709" y="90"/>
      <point x="709" y="90" type="curve"/>
      <point x="709" y="90"/>
      <point x="596" y="119"/>
      <point x="556" y="262" type="curve"/>
      <point x="537" y="334"/>
      <point x="493" y="488"/>
      <point x="403" y="488" type="curve"/>
    </contour>
    <contour>
      <point x="177" y="506" type="line"/>
      <point x="60" y="505"/>
      <point x="32" y="315"/>
      <point x="30" y="156" type="curve"/>
      <point x="30" y="82"/>
      <point x="123" y="1"/>
      <point x="163" y="1" type="curve"/>
      <point x="215" y="1"/>
      <point x="252" y="96"/>
      <point x="252" y="96" type="curve"/>
      <point x="252" y="96"/>
      <point x="200" y="83"/>
      <point x="180" y="84" type="curve"/>
      <point x="100" y="85"/>
      <point x="113" y="208"/>
      <point x="113" y="260" type="curve"/>
      <point x="112" y="339"/>
      <point x="140" y="393"/>
      <point x="157" y="394" type="curve"/>
      <point x="204" y="394"/>
      <point x="198" y="301"/>
      <point x="220" y="230" type="curve"/>
      <point x="226" y="208"/>
      <point x="317" y="25"/>
      <point x="391" y="22" type="curve"/>
      <point x="425" y="22"/>
      <point x="485" y="66"/>
      <point x="485" y="66" type="curve"/>
      <point x="485" y="66"/>
      <point x="360" y="132"/>
      <point x="324" y="281" type="curve"/>
      <point x="297" y="394"/>
      <point x="268" y="506"/>
      <point x="177" y="506" type="curve"/>
    </contour>
  </outline>
</glyph>
<glyph name="n" format="2">
	<advance width="620"/>
	<unicode hex="006E"/>
	<outline>
		<contour>
			<point x="370" y="479" type="line"/>
			<point x="370" y="479" type="line"/>
			<point x="590" y="479" type="line"/>
			<point x="533" y="395" type="line"/>
			<point x="343" y="395" type="line"/>
			<point x="323" y="413" type="line"/>
		</contour>
		<contour>
			<point x="430" y="410" type="line"/>
			<point x="430" y="410" type="line"/>
			<point x="430" y="410"/>
			<point x="537" y="303"/>
			<point x="535" y="235" type="curve"/>
			<point x="535" y="134"/>
			<point x="468" y="41"/>
			<point x="360" y="44" type="curve"/>
			<point x="285" y="45"/>
			<point x="172" y="183"/>
			<point x="172" y="183" type="curve"/>
			<point x="167" y="407" type="line"/>
			<point x="167" y="407"/>
			<point x="217" y="161"/>
			<point x="334" y="163" type="curve"/>
			<point x="398" y="164"/>
			<point x="442" y="230"/>
			<point x="442" y="271" type="curve"/>
			<point x="442" y="336"/>
			<point x="368" y="411"/>
			<point x="368" y="411" type="curve"/>
		</contour>
		<contour>
			<point x="200" y="479" type="line"/>
			<point x="200" y="479" type="line"/>
			<point x="200" y="62" type="line"/>
			<point x="100" y="1" type="line"/>
			<point x="100" y="335" type="line"/>
			<point x="74" y="380" type="line"/>
			<point x="30" y="380" type="line"/>
			<point x="30" y="408" type="line"/>
			<point x="57" y="408" type="line"/>
			<point x="140" y="479" type="line"/>
		</contour>
	</outline>
</glyph>
<glyph name="o" format="2">
  <advance width="565"/>
  <unicode hex="006F"/>
  <outline>
    <contour>
      <point x="30.0" y="222.0" type="curve" smooth="yes"/>
      <point x="30.0" y="122.0"/>
      <point x="79.0" y="3.0"/>
      <point x="189.0" y="3.0" type="curve" smooth="yes"/>
      <point x="394.0" y="3.0"/>
      <point x="535.0" y="250.0"/>
      <point x="535.0" y="361.0" type="curve" smooth="yes"/>
      <point x="535.0" y="470.0"/>
      <point x="477.0" y="581.0"/>
      <point x="378.0" y="581.0" type="curve" smooth="yes"/>
      <point x="255.0" y="581.0"/>
      <point x="30.0" y="465.0"/>
    </contour>
    <contour>
      <point x="142.0" y="278.0" type="curve" smooth="yes"/>
      <point x="156.0" y="383.0"/>
      <point x="200.0" y="448.0"/>
      <point x="276.0" y="468.0" type="curve" smooth="yes"/>
      <point x="373.0" y="493.0"/>
      <point x="450.0" y="358.0"/>
      <point x="429.0" y="271.0" type="curve" smooth="yes"/>
      <point x="408.0" y="183.0"/>
      <point x="375.0" y="126.0"/>
      <point x="302.0" y="113.0" type="curve" smooth="yes"/>
      <point x="247.0" y="103.0"/>
      <point x="122.0" y="130.0"/>
    </contour>
  </outline>
</glyph>
<glyph name="p" format="2">
	<advance width="510"/>
	<unicode hex="0070"/>
	<outline>
		<contour>
			<point x="279" y="499" type="curve"/>
			<point x="279" y="499" type="line"/>
			<point x="340" y="498"/>
			<point x="458" y="476"/>
			<point x="458" y="451" type="curve"/>
			<point x="459" y="420"/>
			<point x="430" y="397"/>
			<point x="403" y="397" type="curve"/>
			<point x="374" y="397"/>
			<point x="349" y="460"/>
			<point x="286" y="461" type="curve"/>
			<point x="234" y="461"/>
			<point x="105" y="377"/>
			<point x="105" y="254" type="curve"/>
			<point x="104" y="141"/>
			<point x="182" y="104"/>
			<point x="257" y="108" type="curve"/>
			<point x="333" y="111"/>
			<point x="401" y="162"/>
			<point x="398" y="222" type="curve"/>
			<point x="395" y="274"/>
			<point x="346" y="280"/>
			<point x="332" y="276" type="curve"/>
			<point x="320" y="272"/>
			<point x="308" y="237"/>
			<point x="308" y="237" type="curve"/>
			<point x="332" y="328" type="line"/>
			<point x="332" y="328"/>
			<point x="479" y="345"/>
			<point x="480" y="244" type="curve"/>
			<point x="481" y="117"/>
			<point x="337" y="59"/>
			<point x="251" y="61" type="curve"/>
			<point x="176" y="62"/>
			<point x="25" y="118"/>
			<point x="30" y="248" type="curve"/>
			<point x="35" y="384"/>
			<point x="177" y="500"/>
		</contour>
		<contour>
			<point x="332" y="328" type="curve"/>
			<point x="332" y="328" type="line"/>
			<point x="332" y="328"/>
			<point x="336" y="311"/>
			<point x="330" y="290" type="curve"/>
			<point x="325" y="273"/>
			<point x="311" y="253"/>
			<point x="308" y="237" type="curve"/>
			<point x="299" y="186"/>
			<point x="296" y="79"/>
			<point x="261" y="16" type="curve"/>
			<point x="186" y="-120"/>
			<point x="87" y="-137"/>
			<point x="87" y="-137" type="curve"/>
			<point x="87" y="-137"/>
			<point x="173" y="-42"/>
			<point x="210" y="28" type="curve"/>
			<point x="235" y="76"/>
			<point x="229" y="196"/>
			<point x="236" y="249" type="curve"/>
			<point x="246" y="324"/>
			<point x="332" y="328"/>
		</contour>
	</outline>
</glyph>
<glyph name="q" format="2">
	<advance width="494"/>
	<unicode hex="0071"/>
	<outline>
		<contour>
			<point x="273" y="499" type="curve" smooth="yes"/>
			<point x="161" y="498"/>
			<point x="35" y="370"/>
			<point x="32" y="264" type="curve" smooth="yes"/>
			<point x="28" y="130"/>
			<point x="142" y="162"/>
			<point x="142" y="162" type="curve"/>
			<point x="142" y="162"/>
			<point x="148" y="70"/>
			<point x="114" y="6" type="curve" smooth="yes"/>
			<point x="82" y="-55"/>
			<point x="30" y="-99"/>
			<point x="30" y="-99" type="curve"/>
			<point x="30" y="-99"/>
			<point x="110" y="-110"/>
			<point x="163" y="-31" type="curve" smooth="yes"/>
			<point x="195" y="18"/>
			<point x="219" y="154"/>
			<point x="219" y="204" type="curve" smooth="yes"/>
			<point x="220" y="232"/>
			<point x="204" y="276"/>
			<point x="177" y="276" type="curve" smooth="yes"/>
			<point x="166.09015" y="275.52567"/>
			<point x="158.1053" y="268.52634"/>
			<point x="150.59073" y="261.93924" type="curve" smooth="yes"/>
			<point x="142.26318" y="254.63951"/>
			<point x="134.51318" y="247.84605"/>
			<point x="124" y="251" type="curve" smooth="yes"/>
			<point x="114" y="254"/>
			<point x="128" y="446"/>
			<point x="269" y="445" type="curve" smooth="yes"/>
			<point x="353" y="445"/>
			<point x="362" y="344"/>
			<point x="362" y="282" type="curve" smooth="yes"/>
			<point x="363" y="207"/>
			<point x="327" y="26"/>
			<point x="327" y="26" type="curve"/>
			<point x="327" y="26"/>
			<point x="467" y="54"/>
			<point x="464" y="338" type="curve" smooth="yes"/>
			<point x="464" y="440"/>
			<point x="388" y="499"/>
		</contour>
	</outline>
</glyph>
<glyph name="r" format="2">
  <advance width="561"/>
  <unicode hex="0072"/>
  <outline>
    <contour>
      <point x="302.0" y="490.0" type="curve" smooth="yes"/>
      <point x="246.0" y="491.0"/>
      <point x="149.0" y="406.0"/>
      <point x="149.0" y="406.0" type="curve"/>
      <point x="159.0" y="326.0" type="line"/>
      <point x="159.0" y="326.0"/>
      <point x="194.0" y="440.0"/>
      <point x="284.0" y="439.0" type="curve" smooth="yes"/>
      <point x="349.0" y="439.0"/>
      <point x="368.0" y="396.0"/>
      <point x="368.0" y="366.0" type="curve" smooth="yes"/>
      <point x="368.0" y="309.0"/>
      <point x="293.0" y="293.0"/>
      <point x="293.0" y="293.0" type="curve"/>
      <point x="252.0" y="255.0" type="line"/>
      <point x="282.0" y="251.0" type="line"/>
      <point x="281.3012390136719" y="251.0"/>
      <point x="281.5790100097656" y="153.83135986328125"/>
      <point x="281.8097839355469" y="73.11381530761719" type="curve" smooth="yes"/>
      <point x="281.9092712402344" y="38.31821823120117"/>
      <point x="282.0" y="6.579710483551025"/>
      <point x="282.0" y="-13.0" type="curve" smooth="yes"/>
      <point x="282.0" y="-64.0"/>
      <point x="368.0" y="-132.0"/>
      <point x="410.0" y="-132.0" type="curve" smooth="yes"/>
      <point x="464.0" y="-130.0"/>
      <point x="531.0" y="-46.0"/>
      <point x="531.0" y="-46.0" type="curve"/>
      <point x="531.0" y="-46.0"/>
      <point x="453.0" y="-83.0"/>
      <point x="418.0" y="-82.0" type="curve" smooth="yes"/>
      <point x="391.0" y="-81.0"/>
      <point x="359.0" y="-53.0"/>
      <point x="359.0" y="-26.0" type="curve" smooth="yes"/>
      <point x="359.0" y="248.0" type="line"/>
      <point x="359.0" y="248.0"/>
      <point x="468.0" y="299.0"/>
      <point x="468.0" y="370.0" type="curve" smooth="yes"/>
      <point x="466.0" y="438.0"/>
      <point x="363.0" y="490.0"/>
    </contour>
    <contour>
      <point x="121.0" y="495.0" type="line"/>
      <point x="30.0" y="408.0" type="line"/>
      <point x="88.0" y="381.0" type="line"/>
      <point x="88.0" y="85.0" type="line"/>
      <point x="170.0" y="124.0" type="line"/>
      <point x="170.0" y="495.0" type="line"/>
    </contour>
  </outline>
</glyph>
<glyph name="s" format="2">
	<advance width="533"/>
	<unicode hex="0073"/>
	<outline>
		<contour>
			<point x="278" y="552" type="curve" smooth="yes"/>
			<point x="197" y="551"/>
			<point x="31" y="479"/>
			<point x="30" y="379" type="curve" smooth="yes"/>
			<point x="29" y="288"/>
			<point x="30" y="6"/>
			<point x="30" y="6" type="curve"/>
			<point x="140" y="84" type="line"/>
			<point x="140" y="84"/>
			<point x="141" y="332"/>
			<point x="140" y="398" type="curve" smooth="yes"/>
			<point x="139" y="442"/>
			<point x="195" y="482"/>
			<point x="239" y="482" type="curve" smooth="yes"/>
			<point x="316.30774" y="483.24689"/>
			<point x="353.58047" y="440.18323"/>
			<point x="381.5939" y="407.81744" type="curve" smooth="yes"/>
			<point x="398.51343" y="388.2692"/>
			<point x="412.05524" y="372.62344"/>
			<point x="429" y="373" type="curve" smooth="yes"/>
			<point x="468" y="375"/>
			<point x="515" y="442"/>
			<point x="490" y="473" type="curve" smooth="yes"/>
			<point x="464" y="504"/>
			<point x="356" y="554"/>
		</contour>
		<contour>
			<point x="326" y="325" type="curve" smooth="yes"/>
			<point x="260" y="327"/>
			<point x="107" y="232"/>
			<point x="107" y="232" type="curve"/>
			<point x="117" y="177" type="line"/>
			<point x="117" y="177"/>
			<point x="230" y="262"/>
			<point x="276" y="261" type="curve" smooth="yes"/>
			<point x="321" y="260"/>
			<point x="391" y="212"/>
			<point x="392" y="168" type="curve" smooth="yes"/>
			<point x="394" y="102"/>
			<point x="258" y="1"/>
			<point x="258" y="1" type="curve"/>
			<point x="258" y="1"/>
			<point x="506" y="35"/>
			<point x="503" y="197" type="curve" smooth="yes"/>
			<point x="501" y="269"/>
			<point x="392" y="324"/>
		</contour>
	</outline>
</glyph>
<glyph name="t" format="2">
  <advance width="443"/>
  <unicode hex="0074"/>
  <outline>
    <contour>
      <point x="236.0" y="646.0" type="curve" smooth="yes"/>
      <point x="101.0" y="641.0"/>
      <point x="30.0" y="508.0"/>
      <point x="30.0" y="508.0" type="curve"/>
      <point x="30.0" y="508.0"/>
      <point x="106.0" y="576.0"/>
      <point x="205.0" y="578.0" type="curve" smooth="yes"/>
      <point x="275.0" y="580.0"/>
      <point x="337.0" y="542.0"/>
      <point x="338.0" y="470.0" type="curve" smooth="yes"/>
      <point x="340.0" y="372.0"/>
      <point x="338.0" y="1.0"/>
      <point x="338.0" y="1.0" type="curve"/>
      <point x="412.0" y="30.0" type="line"/>
      <point x="413.0" y="30.0"/>
      <point x="412.0" y="417.0"/>
      <point x="413.0" y="517.0" type="curve" smooth="yes"/>
      <point x="413.0" y="599.0"/>
      <point x="318.0" y="649.0"/>
    </contour>
  </outline>
</glyph>
<glyph name="u" format="2">
  <advance width="659"/>
  <unicode hex="0075"/>
  <outline>
    <contour>
      <point x="488.0" y="484.0" type="curve" smooth="yes"/>
      <point x="402.0" y="483.0"/>
      <point x="236.0" y="343.0"/>
      <point x="235.0" y="225.0" type="curve"/>
      <point x="235.0" y="171.0"/>
      <point x="216.0" y="69.0"/>
      <point x="194.0" y="69.0" type="curve" smooth="yes"/>
      <point x="151.0" y="69.0"/>
      <point x="107.0" y="126.0"/>
      <point x="106.0" y="170.0" type="curve" smooth="yes"/>
      <point x="103.73289489746094" y="236.3128662109375"/>
      <point x="149.65115356445312" y="289.1338195800781"/>
      <point x="192.22926330566406" y="338.112548828125" type="curve" smooth="yes"/>
      <point x="224.77442932128906" y="375.5500793457031"/>
      <point x="255.36810302734375" y="410.7427978515625"/>
      <point x="261.0" y="448.0" type="curve" smooth="yes"/>
      <point x="266.0" y="485.0"/>
      <point x="214.0" y="504.0"/>
      <point x="178.0" y="504.0" type="curve" smooth="yes"/>
      <point x="134.0" y="504.0"/>
      <point x="85.0" y="471.0"/>
      <point x="85.0" y="447.0" type="curve"/>
      <point x="84.60615539550781" y="438.33551025390625"/>
      <point x="96.15584564208984" y="432.3078918457031"/>
      <point x="109.32502746582031" y="425.43505859375" type="curve" smooth="yes"/>
      <point x="129.59364318847656" y="414.8571472167969"/>
      <point x="153.69854736328125" y="402.27716064453125"/>
      <point x="144.0" y="375.0" type="curve" smooth="yes"/>
      <point x="127.0" y="327.0"/>
      <point x="31.0" y="266.0"/>
      <point x="30.0" y="142.0" type="curve" smooth="yes"/>
      <point x="29.0" y="13.0"/>
      <point x="214.0" y="1.0"/>
      <point x="265.0" y="1.0" type="curve" smooth="yes"/>
      <point x="328.0" y="2.0"/>
      <point x="328.0" y="109.0"/>
      <point x="328.0" y="183.0" type="curve" smooth="yes"/>
      <point x="327.0" y="244.0"/>
      <point x="348.0" y="376.0"/>
      <point x="416.0" y="377.0" type="curve" smooth="yes"/>
      <point x="493.0" y="379.0"/>
      <point x="496.0" y="326.0"/>
      <point x="496.0" y="286.0" type="curve"/>
      <point x="495.0" y="170.0"/>
      <point x="320.0" y="17.0"/>
      <point x="320.0" y="17.0" type="curve"/>
      <point x="320.0" y="17.0"/>
      <point x="551.0" y="-6.0"/>
      <point x="627.0" y="329.0" type="curve" smooth="yes"/>
      <point x="643.0" y="398.0"/>
      <point x="547.0" y="484.0"/>
    </contour>
  </outline>
</glyph>
<glyph name="v" format="2">
	<advance width="642"/>
	<unicode hex="0076"/>
	<outline>
		<contour>
			<point x="482" y="487" type="curve" smooth="yes"/>
			<point x="440" y="487"/>
			<point x="361" y="416"/>
			<point x="361" y="416" type="curve"/>
			<point x="361" y="416"/>
			<point x="476" y="434"/>
			<point x="472" y="324" type="curve" smooth="yes"/>
			<point x="470" y="287"/>
			<point x="382" y="221"/>
			<point x="333" y="182" type="curve" smooth="yes"/>
			<point x="288" y="146"/>
			<point x="183" y="94"/>
			<point x="183" y="94" type="curve"/>
			<point x="183" y="94"/>
			<point x="194" y="310"/>
			<point x="197" y="355" type="curve"/>
			<point x="197" y="361"/>
			<point x="216" y="381"/>
			<point x="217" y="401" type="curve" smooth="yes"/>
			<point x="219" y="439"/>
			<point x="186" y="471"/>
			<point x="168" y="471" type="curve" smooth="yes"/>
			<point x="136" y="470"/>
			<point x="30" y="357"/>
			<point x="30" y="357" type="curve"/>
			<point x="107" y="359" type="line"/>
			<point x="107" y="359"/>
			<point x="109" y="94"/>
			<point x="110" y="34" type="curve" smooth="yes"/>
			<point x="110" y="23"/>
			<point x="134" y="1"/>
			<point x="134" y="1" type="curve"/>
			<point x="134" y="1"/>
			<point x="172" y="53"/>
			<point x="199" y="71" type="curve" smooth="yes"/>
			<point x="239" y="97"/>
			<point x="297" y="111"/>
			<point x="356" y="148" type="curve" smooth="yes"/>
			<point x="430" y="194"/>
			<point x="612" y="340"/>
			<point x="612" y="396" type="curve" smooth="yes"/>
			<point x="612" y="451"/>
			<point x="523" y="487"/>
		</contour>
	</outline>
</glyph>
<glyph name="w" format="2">
	<advance width="653"/>
	<unicode hex="0077"/>
	<outline>
		<contour>
			<point x="521" y="427" type="curve" smooth="yes"/>
			<point x="486" y="426"/>
			<point x="411" y="319"/>
			<point x="411" y="319" type="curve"/>
			<point x="411" y="319"/>
			<point x="530" y="334"/>
			<point x="531" y="275" type="curve" smooth="yes"/>
			<point x="531" y="237"/>
			<point x="441" y="165"/>
			<point x="349" y="105" type="curve" smooth="yes"/>
			<point x="259" y="46"/>
			<point x="166" y="1"/>
			<point x="166" y="1" type="curve"/>
			<point x="166" y="1"/>
			<point x="217" y="-6"/>
			<point x="364" y="82" type="curve" smooth="yes"/>
			<point x="463" y="142"/>
			<point x="622" y="248"/>
			<point x="623" y="305" type="curve" smooth="yes"/>
			<point x="624" y="354"/>
			<point x="559" y="428"/>
		</contour>
		<contour>
			<point x="344" y="427" type="curve" smooth="yes"/>
			<point x="312" y="426"/>
			<point x="253" y="316"/>
			<point x="253" y="316" type="curve"/>
			<point x="253" y="316"/>
			<point x="348" y="322"/>
			<point x="347" y="276" type="curve" smooth="yes"/>
			<point x="346" y="251"/>
			<point x="292" y="193"/>
			<point x="256" y="168" type="curve" smooth="yes"/>
			<point x="219" y="142"/>
			<point x="142" y="106"/>
			<point x="142" y="106" type="curve"/>
			<point x="142" y="106"/>
			<point x="159" y="309"/>
			<point x="158" y="356" type="curve" smooth="yes"/>
			<point x="158" y="371"/>
			<point x="138" y="398"/>
			<point x="126" y="398" type="curve"/>
			<point x="117.76078" y="398.54929"/>
			<point x="111.63353" y="386.42676"/>
			<point x="105.1324" y="373.56448" type="curve" smooth="yes"/>
			<point x="99.79782" y="363.01022"/>
			<point x="94.2115" y="351.95792"/>
			<point x="87" y="347" type="curve" smooth="yes"/>
			<point x="72" y="337"/>
			<point x="30" y="336"/>
			<point x="30" y="336" type="curve"/>
			<point x="71" y="278" type="line"/>
			<point x="51" y="3" type="line"/>
			<point x="51" y="1"/>
			<point x="188" y="80"/>
			<point x="258" y="128" type="curve" smooth="yes"/>
			<point x="276.06534" y="140.38765"/>
			<point x="297.26102" y="150.91042"/>
			<point x="318.71652" y="161.56218" type="curve" smooth="yes"/>
			<point x="380.3974" y="192.18413"/>
			<point x="444.22577" y="223.87222"/>
			<point x="442" y="304" type="curve" smooth="yes"/>
			<point x="440" y="367"/>
			<point x="376" y="427"/>
		</contour>
	</outline>
</glyph>
<glyph name="x" format="2">
	<advance width="600"/>
	<unicode hex="0078"/>
	<outline>
		<contour>
			<point x="160" y="495" type="curve" smooth="yes"/>
			<point x="105" y="495"/>
			<point x="31" y="363"/>
			<point x="31" y="363" type="curve"/>
			<point x="31" y="363"/>
			<point x="85" y="384"/>
			<point x="114" y="385" type="curve" smooth="yes"/>
			<point x="183.56915" y="385.4798"/>
			<point x="223.44304" y="298.02478"/>
			<point x="264.98807" y="206.90453" type="curve" smooth="yes"/>
			<point x="310.03354" y="108.10673"/>
			<point x="357.04361" y="5"/>
			<point x="446" y="5" type="curve" smooth="yes"/>
			<point x="531" y="5"/>
			<point x="534" y="96"/>
			<point x="554" y="116" type="curve"/>
			<point x="554" y="116"/>
			<point x="510" y="98"/>
			<point x="482" y="98" type="curve" smooth="yes"/>
			<point x="383" y="100"/>
			<point x="313" y="494"/>
		</contour>
		<contour>
			<point x="403" y="454" type="curve" smooth="yes"/>
			<point x="405" y="433"/>
			<point x="424" y="448"/>
			<point x="424" y="403" type="curve" smooth="yes"/>
			<point x="424.48581" y="341.30099"/>
			<point x="331.97971" y="289.75082"/>
			<point x="236.49217" y="236.53925" type="curve" smooth="yes"/>
			<point x="135.43011" y="180.22119"/>
			<point x="31.02836" y="122.04206"/>
			<point x="30" y="48" type="curve"/>
			<point x="30" y="-9"/>
			<point x="201" y="-6"/>
			<point x="201" y="37" type="curve" smooth="yes"/>
			<point x="201" y="50"/>
			<point x="179" y="57"/>
			<point x="179" y="70" type="curve" smooth="yes"/>
			<point x="180.50432" y="150.23059"/>
			<point x="279.56863" y="202.80241"/>
			<point x="377.59525" y="254.82355" type="curve" smooth="yes"/>
			<point x="475.05835" y="306.54565"/>
			<point x="571.49567" y="357.72339"/>
			<point x="570" y="435" type="curve" smooth="yes"/>
			<point x="568" y="490"/>
			<point x="401" y="478"/>
		</contour>
	</outline>
</glyph>
<glyph name="y" format="2">
  <advance width="528"/>
  <unicode hex="0079"/>
  <outline>
    <contour>
      <point x="410.0" y="499.0" type="curve" smooth="yes"/>
      <point x="376.0" y="498.0"/>
      <point x="290.0" y="461.0"/>
      <point x="289.0" y="413.0" type="curve"/>
      <point x="289.0" y="402.5175476074219"/>
      <point x="305.3492126464844" y="409.5249328613281"/>
      <point x="320.9330749511719" y="416.2043151855469" type="curve" smooth="yes"/>
      <point x="330.6224670410156" y="420.35723876953125"/>
      <point x="340.0159912109375" y="424.3833923339844"/>
      <point x="345.0" y="424.0" type="curve"/>
      <point x="359.0" y="424.0"/>
      <point x="367.0" y="397.0"/>
      <point x="366.0" y="372.0" type="curve" smooth="yes"/>
      <point x="364.0" y="314.0"/>
      <point x="201.0" y="171.0"/>
      <point x="201.0" y="171.0" type="curve"/>
      <point x="201.0" y="171.0"/>
      <point x="228.0" y="327.0"/>
      <point x="234.0" y="421.0" type="curve" smooth="yes"/>
      <point x="236.0" y="465.0"/>
      <point x="233.0" y="500.0"/>
      <point x="199.0" y="499.0" type="curve" smooth="yes"/>
      <point x="174.0" y="498.0"/>
      <point x="99.0" y="438.0"/>
      <point x="88.0" y="415.0" type="curve"/>
      <point x="84.53571319580078" y="409.06121826171875"/>
      <point x="94.5422592163086" y="408.2658386230469"/>
      <point x="105.41353607177734" y="407.4017639160156" type="curve" smooth="yes"/>
      <point x="116.50894927978516" y="406.51983642578125"/>
      <point x="128.50509643554688" y="405.5663146972656"/>
      <point x="128.0" y="399.0" type="curve" smooth="yes"/>
      <point x="124.0" y="342.0"/>
      <point x="111.0" y="168.0"/>
      <point x="104.0" y="93.0" type="curve" smooth="yes"/>
      <point x="101.62629699707031" y="71.63668823242188"/>
      <point x="83.92687225341797" y="50.49876022338867"/>
      <point x="66.41616821289062" y="29.586206436157227" type="curve" smooth="yes"/>
      <point x="47.042057037353516" y="6.448239803314209"/>
      <point x="27.89896011352539" y="-16.413829803466797"/>
      <point x="30.0" y="-39.0" type="curve" smooth="yes"/>
      <point x="31.0" y="-53.0"/>
      <point x="107.0" y="-28.0"/>
      <point x="128.0" y="-9.0" type="curve" smooth="yes"/>
      <point x="146.0" y="8.0"/>
      <point x="158.0" y="55.0"/>
      <point x="170.0" y="74.0" type="curve" smooth="yes"/>
      <point x="192.0" y="107.0"/>
      <point x="233.0" y="149.0"/>
      <point x="276.0" y="190.0" type="curve" smooth="yes"/>
      <point x="335.0" y="248.0"/>
      <point x="497.0" y="332.0"/>
      <point x="498.0" y="426.0" type="curve" smooth="yes"/>
      <point x="498.0" y="464.0"/>
      <point x="445.0" y="499.0"/>
    </contour>
  </outline>
</glyph>
<glyph name="z" format="2">
	<advance width="623"/>
	<unicode hex="007A"/>
	<outline>
		<contour>
			<point x="97" y="17" type="curve" smooth="yes"/>
			<point x="137" y="15"/>
			<point x="335" y="213"/>
			<point x="335" y="213" type="curve"/>
			<point x="335" y="213"/>
			<point x="258" y="-12"/>
			<point x="334" y="1" type="curve" smooth="yes"/>
			<point x="400" y="12"/>
			<point x="562" y="142"/>
			<point x="562" y="142" type="curve"/>
			<point x="562" y="142"/>
			<point x="446" y="100"/>
			<point x="442" y="129" type="curve" smooth="yes"/>
			<point x="438" y="161"/>
			<point x="453" y="312"/>
			<point x="453" y="312" type="curve"/>
			<point x="593" y="440" type="line"/>
			<point x="592" y="499" type="line"/>
			<point x="340" y="499" type="line" smooth="yes"/>
			<point x="334.53503" y="499"/>
			<point x="329.48489" y="503.35541"/>
			<point x="324.0939" y="508.00479" type="curve" smooth="yes"/>
			<point x="317.64734" y="513.56451"/>
			<point x="310.71338" y="519.54462"/>
			<point x="302" y="519" type="curve" smooth="yes"/>
			<point x="273" y="517"/>
			<point x="176" y="424"/>
			<point x="176" y="424" type="curve"/>
			<point x="487" y="424" type="line"/>
			<point x="409" y="346" type="line"/>
			<point x="409" y="346"/>
			<point x="250" y="328"/>
			<point x="190" y="292" type="curve" smooth="yes"/>
			<point x="92" y="233"/>
			<point x="-58" y="25"/>
		</contour>
		<contour>
			<point x="126" y="119" type="curve" smooth="yes"/>
			<point x="103" y="139"/>
			<point x="196" y="258"/>
			<point x="224" y="265" type="curve" smooth="yes"/>
			<point x="282" y="280"/>
			<point x="293" y="247"/>
			<point x="293" y="247" type="curve"/>
			<point x="293" y="247"/>
			<point x="159" y="91"/>
		</contour>
	</outline>
</glyph>
